<?xml version="1.0" encoding="UTF-8" standalone="no"?>
<!-- Created with Inkscape (http://www.inkscape.org/) -->

<svg
   width="156"
   height="90"
   viewBox="0 0 156 89.999998"
   id="svg2"
   version="1.1"
   inkscape:version="1.3.2 (091e20e, 2023-11-25)"
   sodipodi:docname="Sheargrubs.svg"
   inkscape:export-filename="../../../../../Game_data/Graphics/Female_Sheargrub.png"
   inkscape:export-xdpi="96"
   inkscape:export-ydpi="96"
   xmlns:inkscape="http://www.inkscape.org/namespaces/inkscape"
   xmlns:sodipodi="http://sodipodi.sourceforge.net/DTD/sodipodi-0.dtd"
   xmlns:xlink="http://www.w3.org/1999/xlink"
   xmlns="http://www.w3.org/2000/svg"
   xmlns:svg="http://www.w3.org/2000/svg"
   xmlns:rdf="http://www.w3.org/1999/02/22-rdf-syntax-ns#"
   xmlns:cc="http://creativecommons.org/ns#"
   xmlns:dc="http://purl.org/dc/elements/1.1/">
  <title
     id="title922">Sheargrub spritesheets</title>
  <defs
     id="defs4">
    <linearGradient
       inkscape:collect="always"
       id="head-8"
       inkscape:label="head">
      <stop
         style="stop-color:#dcafc8;stop-opacity:1;"
         offset="0"
         id="stop4255" />
      <stop
         style="stop-color:#dcafc8;stop-opacity:1"
         offset="1"
         id="stop4257" />
    </linearGradient>
    <linearGradient
       inkscape:collect="always"
       id="eye-3"
       inkscape:label="eye">
      <stop
         style="stop-color:#ffffff;stop-opacity:1"
         offset="0"
         id="stop4220" />
      <stop
         style="stop-color:#000000;stop-opacity:1"
         offset="1"
         id="stop4222" />
    </linearGradient>
    <linearGradient
       inkscape:collect="always"
       id="mouth-6"
       inkscape:label="mouth">
      <stop
         style="stop-color:#82315a;stop-opacity:1"
         offset="0"
         id="stop4210" />
      <stop
         style="stop-color:#b69bb0;stop-opacity:1"
         offset="1"
         id="stop4212" />
    </linearGradient>
    <linearGradient
       inkscape:collect="always"
       id="body-9"
       inkscape:label="body">
      <stop
         style="stop-color:#efe7ed;stop-opacity:1"
         offset="0"
         id="stop4178" />
      <stop
         style="stop-color:#dcafc8;stop-opacity:1"
         offset="1"
         id="stop4180" />
    </linearGradient>
    <linearGradient
       inkscape:collect="always"
       xlink:href="#body-9"
       id="linearGradient4182"
       x1="22.5"
       y1="1037.3622"
       x2="25"
       y2="1037.3622"
       gradientUnits="userSpaceOnUse"
       spreadMethod="reflect"
       gradientTransform="translate(0,-29.000029)" />
    <linearGradient
       inkscape:collect="always"
       xlink:href="#mouth-6"
       id="linearGradient4214"
       x1="35.5"
       y1="1038.3622"
       x2="35.5"
       y2="1036.8622"
       gradientUnits="userSpaceOnUse"
       spreadMethod="reflect"
       gradientTransform="translate(0.49999997,-29.000029)" />
    <linearGradient
       inkscape:collect="always"
       xlink:href="#mouth-6"
       id="linearGradient4214-8"
       x1="35.5"
       y1="1038.3622"
       x2="35.5"
       y2="1036.8622"
       gradientUnits="userSpaceOnUse"
       spreadMethod="reflect"
       gradientTransform="translate(42.500076,-29.000029)" />
    <linearGradient
       gradientTransform="translate(38.999999,-29.000029)"
       inkscape:collect="always"
       xlink:href="#body-9"
       id="linearGradient4182-3"
       x1="25.321768"
       y1="1037.3622"
       x2="28"
       y2="1037.3622"
       gradientUnits="userSpaceOnUse"
       spreadMethod="reflect" />
    <linearGradient
       inkscape:collect="always"
       xlink:href="#mouth-6"
       id="linearGradient4214-8-1"
       x1="35.5"
       y1="1038.3622"
       x2="35.5"
       y2="1036.8622"
       gradientUnits="userSpaceOnUse"
       spreadMethod="reflect"
       gradientTransform="translate(87.500072,-29.000029)" />
    <linearGradient
       gradientTransform="translate(80.999999,-29.000029)"
       inkscape:collect="always"
       xlink:href="#body-9"
       id="linearGradient4182-3-7"
       x1="27.5"
       y1="1037.3622"
       x2="30.5"
       y2="1037.3622"
       gradientUnits="userSpaceOnUse"
       spreadMethod="reflect" />
    <linearGradient
       inkscape:collect="always"
       xlink:href="#mouth-6"
       id="linearGradient4873"
       x1="26.5"
       y1="1009.3622"
       x2="26.5"
       y2="1007.3622"
       gradientUnits="userSpaceOnUse"
       spreadMethod="reflect"
       gradientTransform="rotate(27.840381,72.727376,970.39524)" />
    <linearGradient
       inkscape:collect="always"
       xlink:href="#mouth-6"
       id="linearGradient4304"
       x1="61.5"
       y1="1005.8622"
       x2="61.5"
       y2="1003.8622"
       gradientUnits="userSpaceOnUse"
       spreadMethod="reflect"
       gradientTransform="rotate(29.999999,91.016846,975.37475)" />
    <linearGradient
       inkscape:collect="always"
       xlink:href="#body-9"
       id="linearGradient4341"
       x1="41.5"
       y1="1006.3622"
       x2="43.5"
       y2="1006.3622"
       gradientUnits="userSpaceOnUse"
       spreadMethod="reflect"
       gradientTransform="rotate(29.999999,91.016846,975.37475)" />
    <linearGradient
       inkscape:collect="always"
       xlink:href="#body-9"
       id="linearGradient4414"
       x1="94"
       y1="1001.8622"
       x2="97.5"
       y2="1001.8622"
       gradientUnits="userSpaceOnUse"
       spreadMethod="reflect"
       gradientTransform="rotate(29.999999,122.52064,968.38044)" />
    <radialGradient
       inkscape:collect="always"
       xlink:href="#body-9"
       id="radialGradient4471"
       cx="112.50001"
       cy="1004.8622"
       fx="112.50001"
       fy="1004.8622"
       r="14.25"
       gradientTransform="matrix(0.21270788,0.12280717,-0.17543792,0.30386687,251.75007,659.01068)"
       gradientUnits="userSpaceOnUse"
       spreadMethod="reflect" />
    <radialGradient
       inkscape:collect="always"
       xlink:href="#eye-3"
       id="radialGradient4771"
       gradientUnits="userSpaceOnUse"
       gradientTransform="matrix(0.29056448,-0.19402541,0.20600519,0.30781852,555.75666,290.57778)"
       cx="615.40814"
       cy="822.85944"
       fx="615.40814"
       fy="822.85944"
       r="2.7822278" />
    <radialGradient
       inkscape:collect="always"
       xlink:href="#eye-3"
       id="radialGradient4775"
       gradientUnits="userSpaceOnUse"
       gradientTransform="matrix(0.22221785,0.62854692,-0.62854201,0.22221612,-217.00575,1231.8921)"
       cx="-931.98993"
       cy="353.03287"
       fx="-931.98993"
       fy="353.03287"
       r="1.5" />
    <radialGradient
       inkscape:collect="always"
       xlink:href="#eye-3"
       id="radialGradient4779"
       gradientUnits="userSpaceOnUse"
       gradientTransform="matrix(0.4444445,-2.0046914e-6,2.0046473e-6,0.44443471,102.83135,541.29458)"
       cx="28.5"
       cy="1027.8622"
       fx="28.5"
       fy="1027.8622"
       r="2.25" />
    <radialGradient
       inkscape:collect="always"
       xlink:href="#eye-3"
       id="radialGradient4784"
       gradientUnits="userSpaceOnUse"
       gradientTransform="matrix(0.4444445,-2.0046914e-6,2.0046473e-6,0.44443471,57.831344,541.29454)"
       cx="28.5"
       cy="1027.8622"
       fx="28.5"
       fy="1027.8622"
       r="2.25" />
    <radialGradient
       inkscape:collect="always"
       xlink:href="#eye-3"
       id="radialGradient4788"
       gradientUnits="userSpaceOnUse"
       gradientTransform="matrix(0.4444445,-2.0046914e-6,2.0046473e-6,0.44443471,15.831271,541.29454)"
       cx="28.5"
       cy="1027.8622"
       fx="28.5"
       fy="1027.8622"
       r="2.25" />
    <linearGradient
       inkscape:collect="always"
       xlink:href="#body-9"
       id="linearGradient4182-9"
       x1="22.5"
       y1="1037.3622"
       x2="25"
       y2="1037.3622"
       gradientUnits="userSpaceOnUse"
       spreadMethod="reflect"
       gradientTransform="translate(117,-1.6642075e-5)" />
    <radialGradient
       inkscape:collect="always"
       xlink:href="#eye-3"
       id="radialGradient4335"
       cx="154.5434"
       cy="988.05939"
       fx="154.5434"
       fy="988.05939"
       r="2"
       gradientTransform="matrix(0.50000019,-3.796436e-6,3.7893104e-6,0.50000394,30.224524,536.32922)"
       gradientUnits="userSpaceOnUse" />
    <linearGradient
       inkscape:collect="always"
       xlink:href="#mouth-6"
       id="linearGradient4345"
       x1="160"
       y1="999.36218"
       x2="162.5"
       y2="997.86218"
       gradientUnits="userSpaceOnUse"
       gradientTransform="translate(-47.000001,42.000058)" />
    <linearGradient
       inkscape:collect="always"
       xlink:href="#body-9"
       id="linearGradient4321"
       x1="148.5"
       y1="996.36218"
       x2="151"
       y2="996.36218"
       gradientUnits="userSpaceOnUse"
       spreadMethod="reflect"
       gradientTransform="translate(-47.000001,42.000058)" />
    <radialGradient
       inkscape:collect="always"
       xlink:href="#eye-3"
       id="radialGradient4296"
       cx="130.74998"
       cy="975.36218"
       fx="130.74998"
       fy="975.36218"
       r="2.5"
       gradientTransform="matrix(0.40000009,2.5248612e-6,-2.5248092e-6,0.39999186,17.702442,646.72499)"
       gradientUnits="userSpaceOnUse" />
    <linearGradient
       inkscape:collect="always"
       xlink:href="#body-9"
       id="linearGradient4284"
       x1="123"
       y1="977.36218"
       x2="126"
       y2="977.36218"
       gradientUnits="userSpaceOnUse"
       spreadMethod="reflect"
       gradientTransform="translate(-56.499998,60.000058)" />
    <radialGradient
       inkscape:collect="always"
       xlink:href="#eye-3"
       id="radialGradient4241"
       cx="32"
       cy="1036.3652"
       fx="32"
       fy="1036.3652"
       r="2.0993149"
       gradientTransform="matrix(0.47634595,2.5714139e-7,-2.5712811e-7,0.47632115,14.257196,551.71946)"
       gradientUnits="userSpaceOnUse" />
    <linearGradient
       inkscape:collect="always"
       xlink:href="#body-9"
       id="linearGradient4257"
       x1="26"
       y1="1029.3622"
       x2="28.5"
       y2="1029.3622"
       gradientUnits="userSpaceOnUse"
       spreadMethod="reflect"
       gradientTransform="translate(-2.4999999,8.9999832)" />
    <radialGradient
       inkscape:collect="always"
       xlink:href="#eye-3"
       id="radialGradient4987"
       gradientUnits="userSpaceOnUse"
       gradientTransform="matrix(0.4444445,-2.0046914e-6,2.0046473e-6,0.44443471,133.08127,571.29461)"
       cx="28.5"
       cy="1027.8622"
       fx="28.5"
       fy="1027.8622"
       r="2.25" />
    <linearGradient
       inkscape:collect="always"
       xlink:href="#head-8"
       id="linearGradient4259"
       x1="24.845144"
       y1="979.82611"
       x2="53.999996"
       y2="979.82611"
       gradientUnits="userSpaceOnUse"
       gradientTransform="translate(0,-1.6642075e-5)" />
    <linearGradient
       inkscape:collect="always"
       xlink:href="#head-8"
       id="linearGradient4267"
       x1="24.994925"
       y1="1009.3582"
       x2="38"
       y2="1009.3582"
       gradientUnits="userSpaceOnUse"
       gradientTransform="translate(0,-1.6642075e-5)" />
    <linearGradient
       inkscape:collect="always"
       xlink:href="#head-8"
       id="linearGradient4269"
       x1="66.995003"
       y1="1009.3582"
       x2="80.000076"
       y2="1009.3582"
       gradientUnits="userSpaceOnUse"
       gradientTransform="translate(0,-1.6642075e-5)" />
    <linearGradient
       inkscape:collect="always"
       xlink:href="#head-8"
       id="linearGradient4271"
       x1="111.995"
       y1="1009.3582"
       x2="125.00008"
       y2="1009.3582"
       gradientUnits="userSpaceOnUse"
       gradientTransform="translate(0,-1.6642075e-5)" />
    <linearGradient
       inkscape:collect="always"
       xlink:href="#head-8"
       id="linearGradient4273"
       x1="78.428207"
       y1="984.83264"
       x2="91"
       y2="984.83264"
       gradientUnits="userSpaceOnUse"
       gradientTransform="translate(0,-1.6642075e-5)" />
    <linearGradient
       inkscape:collect="always"
       xlink:href="#head-8"
       id="linearGradient4275"
       x1="0"
       y1="980.86218"
       x2="20"
       y2="980.86218"
       gradientUnits="userSpaceOnUse"
       gradientTransform="translate(0,-1.6642075e-5)" />
    <linearGradient
       inkscape:collect="always"
       xlink:href="#head-8"
       id="linearGradient4283"
       x1="141.99492"
       y1="1038.3582"
       x2="155"
       y2="1038.3582"
       gradientUnits="userSpaceOnUse"
       gradientTransform="translate(0,-1.6642075e-5)" />
    <linearGradient
       inkscape:collect="always"
       xlink:href="#head-8"
       id="linearGradient4285"
       x1="104"
       y1="1039.3622"
       x2="116"
       y2="1039.3622"
       gradientUnits="userSpaceOnUse"
       gradientTransform="translate(0,-1.6642075e-5)" />
    <linearGradient
       inkscape:collect="always"
       xlink:href="#head-8"
       id="linearGradient4287"
       x1="64"
       y1="1038.6122"
       x2="77"
       y2="1038.6122"
       gradientUnits="userSpaceOnUse"
       gradientTransform="translate(0,-1.6642075e-5)" />
    <linearGradient
       inkscape:collect="always"
       xlink:href="#head-8"
       id="linearGradient4289"
       x1="24.803835"
       y1="1037.8359"
       x2="38"
       y2="1037.8359"
       gradientUnits="userSpaceOnUse"
       gradientTransform="translate(0,-1.6642075e-5)" />
  </defs>
  <sodipodi:namedview
     id="base"
     pagecolor="#ffffff"
     bordercolor="#666666"
     borderopacity="1.0"
     inkscape:pageopacity="0.0"
     inkscape:pageshadow="2"
     inkscape:zoom="4.7337278"
     inkscape:cx="47.10875"
     inkscape:cy="38.87"
     inkscape:document-units="px"
     inkscape:current-layer="layer2"
     showgrid="true"
     inkscape:object-paths="true"
     inkscape:snap-intersection-paths="true"
     inkscape:object-nodes="true"
     inkscape:snap-smooth-nodes="true"
     inkscape:snap-midpoints="true"
     inkscape:window-width="1872"
     inkscape:window-height="1051"
     inkscape:window-x="48"
     inkscape:window-y="0"
     inkscape:window-maximized="1"
     inkscape:snap-bbox="false"
     inkscape:snap-bbox-midpoints="true"
     inkscape:snap-global="true"
     showguides="false"
     inkscape:showpageshadow="0"
     inkscape:pagecheckerboard="0"
     inkscape:deskcolor="#d1d1d1">
    <inkscape:grid
       type="xygrid"
       id="grid4136"
       originx="0"
       originy="-5.4687495e-07"
       spacingy="0.99999997"
       spacingx="0.99999997"
       units="px"
       visible="true" />
  </sodipodi:namedview>
  <metadata
     id="metadata7">
    <rdf:RDF>
      <cc:Work
         rdf:about="">
        <dc:format>image/svg+xml</dc:format>
        <dc:type
           rdf:resource="http://purl.org/dc/dcmitype/StillImage" />
        <dc:title>Sheargrub spritesheets</dc:title>
        <cc:license
           rdf:resource="https://opensource.org/licenses/MIT" />
        <dc:creator>
          <cc:Agent>
            <dc:title>André &quot;Espyo&quot; Silva</dc:title>
          </cc:Agent>
        </dc:creator>
        <dc:subject>
          <rdf:Bag>
            <rdf:li>Pikifen spritesheet</rdf:li>
          </rdf:Bag>
        </dc:subject>
        <dc:description>Spritesheet for the various Sheargrubs pre-packaged in Pikifen. See https://www.pikminfanon.com/wiki/Pikifen</dc:description>
      </cc:Work>
    </rdf:RDF>
  </metadata>
  <g
     inkscape:groupmode="layer"
     id="layer2"
     inkscape:label="Grid"
     style="display:inline"
     transform="translate(0,-963.36206)">
    <rect
       style="font-variation-settings:normal;display:inline;vector-effect:none;fill:#40c040;fill-opacity:1;stroke:none;stroke-width:4.42729;stroke-linecap:butt;stroke-linejoin:miter;stroke-miterlimit:4;stroke-dasharray:none;stroke-dashoffset:0;stroke-opacity:1;-inkscape-stroke:none;paint-order:markers stroke fill;stop-color:#000000"
       id="rect572"
       width="156"
       height="90"
       x="0"
       y="963.36206"
       inkscape:export-filename="../../../../../Game_data/Graphics/Female_Sheargrub.png"
       inkscape:export-xdpi="96"
       inkscape:export-ydpi="96" />
    <rect
       style="color:#000000;display:inline;overflow:visible;visibility:visible;opacity:1;fill:#008000;fill-opacity:1;fill-rule:nonzero;stroke:none;stroke-width:0.500001;stroke-linecap:round;stroke-linejoin:round;stroke-miterlimit:4;stroke-dasharray:none;stroke-dashoffset:0;stroke-opacity:0.32549;marker:none;enable-background:accumulate"
       id="rect4411-0-4"
       width="44"
       height="28.000023"
       x="81"
       y="995.36224" />
    <rect
       style="color:#000000;display:inline;overflow:visible;visibility:visible;opacity:1;fill:#008000;fill-opacity:1;fill-rule:nonzero;stroke:none;stroke-width:0.500001;stroke-linecap:round;stroke-linejoin:round;stroke-miterlimit:4;stroke-dasharray:none;stroke-dashoffset:0;stroke-opacity:0.32549;marker:none;enable-background:accumulate"
       id="rect4411"
       width="38"
       height="27.999977"
       x="0"
       y="995.36224" />
    <rect
       style="color:#000000;display:inline;overflow:visible;visibility:visible;opacity:1;fill:#008000;fill-opacity:1;fill-rule:nonzero;stroke:none;stroke-width:0.500001;stroke-linecap:round;stroke-linejoin:round;stroke-miterlimit:4;stroke-dasharray:none;stroke-dashoffset:0;stroke-opacity:0.32549;marker:none;enable-background:accumulate"
       id="rect4411-0"
       width="41"
       height="28.000023"
       x="39"
       y="995.36224" />
    <rect
       style="color:#000000;display:inline;overflow:visible;visibility:visible;opacity:1;fill:#008000;fill-opacity:1;fill-rule:nonzero;stroke:none;stroke-width:0.500001;stroke-linecap:round;stroke-linejoin:round;stroke-miterlimit:4;stroke-dasharray:none;stroke-dashoffset:0;stroke-opacity:0.32549;marker:none;enable-background:accumulate"
       id="rect4411-1"
       width="20"
       height="26.999931"
       x="0"
       y="967.3623" />
    <rect
       style="color:#000000;display:inline;overflow:visible;visibility:visible;opacity:1;fill:#008000;fill-opacity:1;fill-rule:nonzero;stroke:none;stroke-width:0.500001;stroke-linecap:round;stroke-linejoin:round;stroke-miterlimit:4;stroke-dasharray:none;stroke-dashoffset:0;stroke-opacity:0.32549;marker:none;enable-background:accumulate"
       id="rect4411-1-2"
       width="33"
       height="28.999922"
       x="21"
       y="965.36224" />
    <rect
       style="color:#000000;display:inline;overflow:visible;visibility:visible;opacity:1;fill:#008000;fill-opacity:1;fill-rule:nonzero;stroke:none;stroke-width:0.500001;stroke-linecap:round;stroke-linejoin:round;stroke-miterlimit:4;stroke-dasharray:none;stroke-dashoffset:0;stroke-opacity:0.32549;marker:none;enable-background:accumulate"
       id="rect4411-1-2-6"
       width="36"
       height="31.000029"
       x="55"
       y="963.36224" />
    <rect
       style="color:#000000;display:inline;overflow:visible;visibility:visible;opacity:1;fill:#008000;fill-opacity:1;fill-rule:nonzero;stroke:none;stroke-width:0.500001;stroke-linecap:round;stroke-linejoin:round;stroke-miterlimit:4;stroke-dasharray:none;stroke-dashoffset:0;stroke-opacity:0.32549;marker:none;enable-background:accumulate"
       id="rect4411-1-2-6-6"
       width="26"
       height="28.000006"
       x="92"
       y="966.3623" />
    <rect
       style="color:#000000;display:inline;overflow:visible;visibility:visible;opacity:1;fill:#008000;fill-opacity:1;fill-rule:nonzero;stroke:none;stroke-width:0.500001;stroke-linecap:round;stroke-linejoin:round;stroke-miterlimit:4;stroke-dasharray:none;stroke-dashoffset:0;stroke-opacity:0.32549;marker:none;enable-background:accumulate"
       id="rect4411-1-7"
       width="38"
       height="27.999977"
       x="0"
       y="1024.3623" />
    <rect
       style="color:#000000;display:inline;overflow:visible;visibility:visible;opacity:1;fill:#008000;fill-opacity:1;fill-rule:nonzero;stroke:none;stroke-width:0.500001;stroke-linecap:round;stroke-linejoin:round;stroke-miterlimit:4;stroke-dasharray:none;stroke-dashoffset:0;stroke-opacity:0.32549;marker:none;enable-background:accumulate"
       id="rect4411-1-7-6"
       width="37.999985"
       height="25.999943"
       x="39.000015"
       y="1026.3623" />
    <rect
       style="color:#000000;display:inline;overflow:visible;visibility:visible;opacity:1;fill:#008000;fill-opacity:1;fill-rule:nonzero;stroke:none;stroke-width:0.500001;stroke-linecap:round;stroke-linejoin:round;stroke-miterlimit:4;stroke-dasharray:none;stroke-dashoffset:0;stroke-opacity:0.32549;marker:none;enable-background:accumulate"
       id="rect4411-1-7-6-2"
       width="37.999985"
       height="25.999926"
       x="78"
       y="1026.3623" />
    <rect
       style="color:#000000;display:inline;overflow:visible;visibility:visible;opacity:1;fill:#008000;fill-opacity:1;fill-rule:nonzero;stroke:none;stroke-width:0.500001;stroke-linecap:round;stroke-linejoin:round;stroke-miterlimit:4;stroke-dasharray:none;stroke-dashoffset:0;stroke-opacity:0.32549;marker:none;enable-background:accumulate"
       id="rect4411-1-7-6-2-8"
       width="38"
       height="27.999897"
       x="116.99999"
       y="1024.3623" />
    <g
       id="g4760"
       style="display:inline"
       transform="translate(0,-89.000123)">
      <ellipse
         style="display:inline;fill:#c99379;fill-opacity:0.999921;stroke:none"
         id="path3782"
         inkscape:export-filename="C:\Users\Andre\Dropbox\Programacao\C++\Pikmin_fangame_engine\Documents\Olimar.png"
         inkscape:export-xdpi="96"
         inkscape:export-ydpi="96"
         cx="-6.7031322"
         cy="1036.3622"
         rx="3.203124"
         ry="3.5000007" />
      <circle
         style="display:inline;fill:none;stroke:#00ffff;stroke-width:2;stroke-miterlimit:4;stroke-dasharray:none;stroke-opacity:1"
         id="path3770-7"
         inkscape:export-filename="C:\Users\Andre\Dropbox\Programacao\C++\Pikmin_fangame_engine\Documents\Olimar.png"
         inkscape:export-xdpi="96"
         inkscape:export-ydpi="96"
         cx="-16"
         cy="1036.3622"
         r="15" />
      <circle
         style="display:inline;fill:#d5b284;fill-opacity:1;stroke:none"
         id="path3780"
         inkscape:export-filename="C:\Users\Andre\Dropbox\Programacao\C++\Pikmin_fangame_engine\Documents\Olimar.png"
         inkscape:export-xdpi="96"
         inkscape:export-ydpi="96"
         cx="-18"
         cy="1036.3622"
         r="9.5" />
      <path
         style="display:inline;fill:#000000;fill-opacity:1;stroke:none"
         d="m -12,1034.8622 v -6 h 2 v 6 z"
         id="path3824"
         inkscape:connector-curvature="0"
         inkscape:export-filename="C:\Users\Andre\Dropbox\Programacao\C++\Pikmin_fangame_engine\Documents\Olimar.png"
         inkscape:export-xdpi="96"
         inkscape:export-ydpi="96" />
      <path
         style="display:inline;fill:#000000;fill-opacity:1;stroke:none"
         d="m -12,1043.8622 v -6 h 2 v 6 z"
         id="path3824-4"
         inkscape:connector-curvature="0"
         inkscape:export-filename="C:\Users\Andre\Dropbox\Programacao\C++\Pikmin_fangame_engine\Documents\Olimar.png"
         inkscape:export-xdpi="96"
         inkscape:export-ydpi="96" />
    </g>
  </g>
  <g
     inkscape:label="Sprites"
     inkscape:groupmode="layer"
     id="layer1"
     transform="translate(0,-963.36206)"
     style="display:inline">
    <path
       style="opacity:1;fill:url(#linearGradient4182);fill-opacity:1;fill-rule:evenodd;stroke:none;stroke-width:0.999999px;stroke-linecap:butt;stroke-linejoin:miter;stroke-opacity:1"
       d="M 8.4999998,996.86218 C 3.0791218,1000.8047 0,1005.3622 0,1009.3622 c 0,4 2.9208782,8.4425 8.4999998,12.5 2.0000002,1 6.2599782,1.4035 9.5000002,1.5 2.5,0 4.898203,-0.7505 7.5,-2.5 v -22.99999 c -2.554515,-1.64682 -5.445485,-2.4291 -8,-2.50001 -3.112151,-0.0858 -7.5000002,0.5 -9.0000002,1.49998 z"
       id="path4166"
       inkscape:connector-curvature="0"
       sodipodi:nodetypes="csccccsc" />
    <circle
       style="color:#000000;display:inline;overflow:visible;visibility:visible;opacity:1;fill:url(#radialGradient4788);fill-opacity:1;fill-rule:nonzero;stroke:none;stroke-width:0.500001;stroke-linecap:round;stroke-linejoin:round;stroke-miterlimit:4;stroke-dasharray:none;stroke-dashoffset:0;stroke-opacity:0.32549;marker:none;enable-background:accumulate"
       id="path4168"
       cx="27.25"
       cy="999.61212"
       r="2.25" />
    <use
       x="0"
       y="0"
       xlink:href="#path4168"
       id="use4170"
       transform="matrix(1,0,0,-1,0.24999999,2018.2245)"
       width="100%"
       height="100%"
       style="opacity:1" />
    <path
       style="opacity:1;fill:url(#linearGradient4214);fill-opacity:1;fill-rule:evenodd;stroke:none;stroke-width:0.999999px;stroke-linecap:butt;stroke-linejoin:miter;stroke-opacity:1"
       d="m 35,1009.8622 h 3.000001 L 37,1011.3622 h -3 v -3.5 h 3 l 1.000001,1 H 35 Z"
       id="path4172"
       inkscape:connector-curvature="0"
       sodipodi:nodetypes="ccccccccc" />
    <path
       style="opacity:1;fill:url(#linearGradient4267);fill-opacity:1;fill-rule:evenodd;stroke:none;stroke-width:0.999999px;stroke-linecap:butt;stroke-linejoin:miter;stroke-opacity:1"
       d="m 25.010707,1021.1858 c 1.5,-1.5 11.989293,-4.3236 12.989294,-11.3236 l -1.000001,1 h -1.5 v -3 H 37 l 1.000001,1 c -1.500001,-7 -11.005077,-10.33151 -13.005077,-11.33149 z"
       id="path4166-0"
       inkscape:connector-curvature="0"
       sodipodi:nodetypes="ccccccccc" />
    <path
       style="opacity:1;fill:url(#linearGradient4182-3);fill-opacity:1;fill-rule:evenodd;stroke:none;stroke-width:0.999999px;stroke-linecap:butt;stroke-linejoin:miter;stroke-opacity:1"
       d="M 47.499998,996.86218 C 42.07912,1000.8047 39,1005.3622 39,1009.3622 c 0,4 2.920879,8.4425 8.499998,12.5 2.000002,1 6.259979,1.4035 9.500002,1.5 2.499998,0 7.898203,-0.7505 10.499999,-2.5 v -22.99999 c -2.554514,-1.64682 -8.445486,-2.4291 -11.000001,-2.50001 -3.11215,-0.0858 -7.5,0.5 -9,1.49998 z"
       id="path4166-4"
       inkscape:connector-curvature="0"
       sodipodi:nodetypes="csccccsc" />
    <circle
       style="color:#000000;display:inline;overflow:visible;visibility:visible;opacity:1;fill:url(#radialGradient4784);fill-opacity:1;fill-rule:nonzero;stroke:none;stroke-width:0.500001;stroke-linecap:round;stroke-linejoin:round;stroke-miterlimit:4;stroke-dasharray:none;stroke-dashoffset:0;stroke-opacity:0.32549;marker:none;enable-background:accumulate"
       id="path4168-7"
       cx="69.250076"
       cy="999.61212"
       r="2.25" />
    <use
       x="0"
       y="0"
       xlink:href="#path4168-7"
       id="use4170-9"
       transform="matrix(1,0,0,-1,0.24999999,2018.2245)"
       width="100%"
       height="100%"
       style="opacity:1" />
    <path
       style="opacity:1;fill:url(#linearGradient4214-8);fill-opacity:1;fill-rule:evenodd;stroke:none;stroke-width:0.999999px;stroke-linecap:butt;stroke-linejoin:miter;stroke-opacity:1"
       d="m 77.000076,1009.8622 h 3 l -0.999999,1.5 h -3 v -3.5 h 3 l 0.999999,1 h -3 z"
       id="path4172-3"
       inkscape:connector-curvature="0"
       sodipodi:nodetypes="ccccccccc" />
    <path
       style="opacity:1;fill:url(#linearGradient4269);fill-opacity:1;fill-rule:evenodd;stroke:none;stroke-width:0.999999px;stroke-linecap:butt;stroke-linejoin:miter;stroke-opacity:1"
       d="m 67.010781,1021.1858 c 1.5,-1.5 11.989296,-4.3236 12.989295,-11.3236 l -0.999999,1 h -1.5 v -3 h 1.5 l 0.999999,1 c -1.5,-7 -11.005077,-10.33151 -13.005078,-11.33149 z"
       id="path4166-0-9"
       inkscape:connector-curvature="0"
       sodipodi:nodetypes="ccccccccc" />
    <path
       style="display:inline;opacity:1;fill:url(#linearGradient4182-3-7);fill-opacity:1;fill-rule:evenodd;stroke:none;stroke-width:0.999999px;stroke-linecap:butt;stroke-linejoin:miter;stroke-opacity:1"
       d="m 89.499998,996.86218 c -5.420878,3.94252 -8.499999,8.50002 -8.499999,12.50002 0,4 2.92088,8.4425 8.499999,12.5 2.000001,1 9.259979,1.4035 12.500002,1.5 2.5,0 7.8982,-0.7505 10.5,-2.5 v -22.99999 c -2.55451,-1.64682 -8.44549,-2.4291 -11,-2.50001 -3.112152,-0.0858 -10.500002,0.5 -12.000002,1.49998 z"
       id="path4166-4-1"
       inkscape:connector-curvature="0"
       sodipodi:nodetypes="csccccsc" />
    <circle
       style="color:#000000;display:inline;overflow:visible;visibility:visible;opacity:1;fill:url(#radialGradient4779);fill-opacity:1;fill-rule:nonzero;stroke:none;stroke-width:0.500001;stroke-linecap:round;stroke-linejoin:round;stroke-miterlimit:4;stroke-dasharray:none;stroke-dashoffset:0;stroke-opacity:0.32549;marker:none;enable-background:accumulate"
       id="path4168-7-6"
       cx="114.25008"
       cy="999.61212"
       r="2.25" />
    <use
       x="0"
       y="0"
       xlink:href="#path4168-7-6"
       id="use4170-9-0"
       transform="matrix(1,0,0,-1,0.24999999,2018.2245)"
       width="100%"
       height="100%"
       style="display:inline;opacity:1" />
    <path
       style="display:inline;opacity:1;fill:url(#linearGradient4214-8-1);fill-opacity:1;fill-rule:evenodd;stroke:none;stroke-width:0.999999px;stroke-linecap:butt;stroke-linejoin:miter;stroke-opacity:1"
       d="m 122.00008,1009.8622 h 3 l -1,1.5 h -3 v -3.5 h 3 l 1,1 h -3 z"
       id="path4172-3-5"
       inkscape:connector-curvature="0"
       sodipodi:nodetypes="ccccccccc" />
    <path
       style="display:inline;opacity:1;fill:url(#linearGradient4271);fill-opacity:1;fill-rule:evenodd;stroke:none;stroke-width:0.999999px;stroke-linecap:butt;stroke-linejoin:miter;stroke-opacity:1"
       d="m 112.01078,1021.1858 c 1.5,-1.5 11.9893,-4.3236 12.9893,-11.3236 l -1,1 h -1.5 v -3 h 1.5 l 1,1 c -1.5,-7 -11.00508,-10.33151 -13.00508,-11.33149 z"
       id="path4166-0-9-9"
       inkscape:connector-curvature="0"
       sodipodi:nodetypes="ccccccccc" />
    <path
       style="display:inline;opacity:1;fill:url(#linearGradient4873);fill-opacity:1;fill-rule:evenodd;stroke:none;stroke-width:0.999999px;stroke-linecap:butt;stroke-linejoin:miter;stroke-opacity:1"
       d="m 12.167517,979.65161 5.747638,3.03561 1.27661,2.93597 -2.444135,-0.7254 1.977125,1.60962 -3.14465,0.60098 -5.7476381,-3.03549 z"
       id="path4865"
       inkscape:connector-curvature="0"
       sodipodi:nodetypes="cccccccc" />
    <path
       style="display:inline;opacity:1;fill:url(#linearGradient4275);fill-opacity:1;fill-rule:evenodd;stroke:none;stroke-width:0.999999px;stroke-linecap:butt;stroke-linejoin:miter;stroke-opacity:1"
       d="m 11.893793,991.94691 c 3.845165,-1.9273 4.287292,-1.6938 6.830962,-5.4395 l -5.563901,-1.2421 -2.652756,-1.40111 1.86804,-3.537 2.652756,1.40111 4.162871,3.89488 C 19.933554,984.21872 20,982.86221 20,981.86218 20,980.0482 19.579334,978.26071 19.624341,976.239 19.538522,970.7297 16.152756,968.76321 13.5,967.36221 9.8772048,968.29459 5.8750333,972.25561 3.2752284,977.21699 1.3671703,980.8583 0,985.18919 0,988.86221 0,989.8622 0.2672013,991.30299 0.50000001,992.3622 1.9696463,993.1384 3.7861636,994.36751 6,994.36221 c 1.7822055,0 3.8664532,-0.96412 5.893793,-2.4153 z"
       id="path4859"
       inkscape:connector-curvature="0"
       sodipodi:nodetypes="cccccccsccsscsc" />
    <ellipse
       style="color:#000000;display:inline;overflow:visible;visibility:visible;opacity:1;fill:url(#radialGradient4775);fill-opacity:1;fill-rule:nonzero;stroke:none;stroke-width:0.500001;stroke-linecap:round;stroke-linejoin:round;stroke-miterlimit:4;stroke-dasharray:none;stroke-dashoffset:0;stroke-opacity:0.32549;marker:none;enable-background:accumulate"
       id="path4861"
       cx="-646.56366"
       cy="724.20874"
       rx="1.5"
       ry="2.249989"
       transform="rotate(-42.688184)" />
    <use
       style="display:inline"
       x="0"
       y="0"
       xlink:href="#path4861"
       id="use4863"
       transform="matrix(0.56380338,0.82590904,0.82590904,-0.56380338,-805.88395,1526.6504)"
       width="100%"
       height="100%" />
    <path
       style="fill:url(#linearGradient4304);fill-opacity:1;fill-rule:evenodd;stroke:none;stroke-width:0.999999px;stroke-linecap:butt;stroke-linejoin:miter;stroke-opacity:1"
       d="m 53.741846,987.9033 -5.263139,-1.88402 4.263141,3.61611 -2.049041,0.54901 -4.330125,-2.50001 2.499999,-4.33009 4.330129,2.50001 z"
       id="path4296"
       inkscape:connector-curvature="0" />
    <path
       style="opacity:1;fill:url(#linearGradient4259);fill-opacity:1;fill-rule:evenodd;stroke:none;stroke-width:0.999999px;stroke-linecap:butt;stroke-linejoin:miter;stroke-opacity:1"
       d="m 53.741846,987.9033 c 0.258142,-1.0411 0.258142,-2.04109 0.258142,-3.04112 0,-4.79089 -3.367513,-11.42778 -5.516481,-13.85117 -2.622603,-2.9576 -6.861218,-5.11612 -6.861218,-5.11612 0,0 -8.861216,-1.65188 -14.361215,7.87442 -5.500001,9.5263 0.111216,16.8074 0.111216,16.8074 0,0 5.013139,2.31701 8.111216,2.95098 3.098077,0.63391 14.508331,0.87081 17.25833,-3.8923 l -3.531091,-0.884 -2.165061,-1.25 1.999997,-3.46409 2.165065,1.25 z"
       id="path4292"
       inkscape:connector-curvature="0"
       sodipodi:nodetypes="cssczczcccccc" />
    <ellipse
       style="color:#000000;display:inline;overflow:visible;visibility:visible;opacity:1;fill:url(#radialGradient4771);fill-opacity:1;fill-rule:nonzero;stroke:none;stroke-width:0.500001;stroke-linecap:round;stroke-linejoin:round;stroke-miterlimit:4;stroke-dasharray:none;stroke-dashoffset:0;stroke-opacity:0.32549;marker:none;enable-background:accumulate"
       id="path4294"
       cx="903.83722"
       cy="424.85706"
       rx="2.7822278"
       ry="0.98383969"
       transform="matrix(0.48064322,0.87691624,-0.90549877,0.42434888,0,0)" />
    <use
       x="0"
       y="0"
       xlink:href="#path4294"
       id="use4314"
       transform="matrix(0.48685353,0.87348362,0.87348362,-0.48685353,-835.56541,1423.6037)"
       width="100%"
       height="100%" />
    <path
       style="opacity:1;fill:url(#linearGradient4341);fill-opacity:1;fill-rule:evenodd;stroke:none;stroke-width:0.999999px;stroke-linecap:butt;stroke-linejoin:miter;stroke-opacity:1"
       d="m 41.6223,965.89489 c -0.622303,-0.5328 -3.122302,-0.5328 -6.622302,-0.5328 -4,0 -9.557184,0.5565 -12.502053,5.65719 -1.154426,1.9996 -1.497947,3.84292 -1.497947,5.84293 0,7.32748 6.372303,13.7145 6.372303,13.7145 z"
       id="path4292-7"
       inkscape:connector-curvature="0"
       sodipodi:nodetypes="cssscc" />
    <use
       x="0"
       y="0"
       xlink:href="#path4418"
       inkscape:transform-center-x="-123.07945"
       inkscape:transform-center-y="134.16552"
       id="use4420"
       transform="matrix(0.56277767,0.8266083,0.8266083,-0.56277767,-778.50616,1469.4151)"
       width="100%"
       height="100%" />
    <ellipse
       style="color:#000000;display:inline;overflow:visible;visibility:visible;opacity:1;fill:#000000;fill-opacity:1;fill-rule:nonzero;stroke:none;stroke-width:0.500001;stroke-linecap:round;stroke-linejoin:round;stroke-miterlimit:4;stroke-dasharray:none;stroke-dashoffset:0;stroke-opacity:0.32549;marker:none;enable-background:accumulate"
       id="path4418"
       cx="-280.00214"
       cy="938.89844"
       rx="0.99999994"
       ry="1.75"
       transform="rotate(-21.779724)"
       inkscape:transform-center-x="0.43538185"
       inkscape:transform-center-y="0.87187057" />
    <path
       style="opacity:1;fill:url(#linearGradient4414);fill-opacity:1;fill-rule:evenodd;stroke:none;stroke-width:0.999999px;stroke-linecap:butt;stroke-linejoin:miter;stroke-opacity:1"
       d="m 79.111222,993.52641 9.749998,-16.8875 c 0,0 -0.84195,-6.28683 -6.410249,-8.89712 -3.253425,-1.52508 -9.450973,-4.37979 -14.950972,-4.37979 -3.999998,0 -7.589918,0.45959 -10.499999,5.50001 -1.428639,2.47449 -2.000002,5.5 -2.000002,7.49998 0,8.11619 9.193588,13.3155 13.200972,16.06152 2.106833,1.4437 4.389977,1.92827 6.299028,1.93848 2.653323,0.0151 4.611224,-0.83558 4.611224,-0.83558 z"
       id="path4406"
       inkscape:connector-curvature="0"
       sodipodi:nodetypes="ccssssssc" />
    <path
       style="fill:url(#linearGradient4273);fill-opacity:1;fill-rule:evenodd;stroke:none;stroke-width:0.999999px;stroke-linecap:butt;stroke-linejoin:miter;stroke-opacity:1"
       d="m 78.428208,993.70941 c 4.601832,-0.65291 9.001671,-1.9813 11.312183,-5.59321 0.74575,-1.16579 1.259607,-2.25418 1.259607,-3.7542 0,-2.50001 -1.310767,-5.79171 -2.32179,-8.40609 z"
       id="path4416"
       inkscape:connector-curvature="0"
       sodipodi:nodetypes="csscc" />
    <path
       style="opacity:1;fill:url(#radialGradient4471);fill-opacity:1;fill-rule:evenodd;stroke:none;stroke-width:0.999999px;stroke-linecap:butt;stroke-linejoin:miter;stroke-opacity:1"
       d="m 106.5048,966.36219 c -4,0 -11.61563,6.1022 -13,8.50001 -0.830422,1.43829 -1.504799,5.00828 -1.504799,8.50832 0,2.49996 0.374929,5.82387 1.504799,6.99167 1.433798,1.48191 6.5,4.00002 11.5,4.00002 3.5,0 7.8707,-1.68491 10.90545,-6.94133 1.60402,-2.77829 2.08975,-5.55038 2.08975,-8.05039 0,-6 -5.9952,-13.0083 -11.4952,-13.0083 z"
       id="path4463"
       inkscape:connector-curvature="0"
       sodipodi:nodetypes="cssssscc" />
    <path
       style="display:inline;opacity:1;fill:url(#linearGradient4289);fill-opacity:1;fill-rule:evenodd;stroke:none;stroke-width:0.999999px;stroke-linecap:butt;stroke-linejoin:miter;stroke-opacity:1"
       d="m 26.415403,1049.3899 c 3,-3 4.445396,-3.6721 8.584597,-5.5277 2.25493,-1.0109 3.000001,-2.1854 3.000001,-4 0,-1.5 -0.589549,-3.1343 -1.500001,-4.5 -3.5,-3 -7.696165,-6.3699 -11.696165,-9.0802 z"
       id="path4228"
       inkscape:connector-curvature="0"
       sodipodi:nodetypes="cssccc" />
    <path
       style="display:inline;opacity:1;fill:url(#linearGradient4257);fill-opacity:1;fill-rule:evenodd;stroke:none;stroke-width:0.999999px;stroke-linecap:butt;stroke-linejoin:miter;stroke-opacity:1"
       d="m 26.5,1049.3622 c -3.802335,2.005 -6.791597,3 -9.5,3 -3,0 -5.339074,-0.7658 -8.9999999,-1.5 C 1.1331908,1049.4851 0,1044.3622 0,1038.8622 c 0,-5.5 4.7969389,-11.8423 10.5,-13 3.272724,-0.6644 5,-1.5 7.5,-1.5 1.897353,0 3.983199,0.6191 7,2 0,0 1.720971,22.6464 1.5,23 z"
       id="path4230"
       inkscape:connector-curvature="0"
       sodipodi:nodetypes="csszsscc" />
    <path
       style="display:inline;fill:url(#radialGradient4241);fill-opacity:1;fill-rule:evenodd;stroke:none;stroke-width:0.999999px;stroke-linecap:butt;stroke-linejoin:miter;stroke-opacity:1"
       d="m 27.5,1046.3622 c 1,-1.5 2,-3.5 4,-3 1,2.5 -2,5.5 -4,3 z"
       id="path4232"
       inkscape:connector-curvature="0"
       sodipodi:nodetypes="ccc" />
    <path
       style="display:inline;opacity:1;fill:url(#linearGradient4284);fill-opacity:1;fill-rule:evenodd;stroke:none;stroke-width:0.999999px;stroke-linecap:butt;stroke-linejoin:miter;stroke-opacity:1"
       d="m 43.5,1049.3622 c -2.408414,-1.5053 -4.5,-4.5 -4.5,-8 0,-2.4576 0.936419,-3.3356 3,-6.5 3.677767,-5.6397 9.215058,-8.5 15.999998,-8.5 3,0 4.254853,0.3367 6,1.5 l 1.5,21.5 c -4.401985,2.4211 -7.999997,3 -12.499997,3 -5.498956,0 -7.260798,-1.6005 -9.500001,-3 z"
       id="path4276"
       inkscape:connector-curvature="0"
       sodipodi:nodetypes="ssssccss" />
    <path
       style="display:inline;opacity:1;fill:url(#linearGradient4287);fill-opacity:1;fill-rule:evenodd;stroke:none;stroke-width:0.999999px;stroke-linecap:butt;stroke-linejoin:miter;stroke-opacity:1"
       d="m 65.499998,1049.3622 c 3.500001,-3 5.293391,-6.959 11.500003,-9 -0.500002,-3.5 -0.454923,-4.4507 -6,-6 -3.456461,-4.9491 -4.749782,-5.0599 -7.000003,-6.5 z"
       id="path4286"
       inkscape:connector-curvature="0"
       sodipodi:nodetypes="ccccc" />
    <ellipse
       style="color:#000000;display:inline;overflow:visible;visibility:visible;opacity:1;fill:url(#radialGradient4296);fill-opacity:1;fill-rule:nonzero;stroke:none;stroke-width:0.500001;stroke-linecap:round;stroke-linejoin:round;stroke-miterlimit:4;stroke-dasharray:none;stroke-dashoffset:0;stroke-opacity:0.32549;marker:none;enable-background:accumulate"
       id="path4288"
       cx="69.5"
       cy="1037.8621"
       rx="2.5"
       ry="3" />
    <path
       style="display:inline;opacity:1;fill:url(#linearGradient4321);fill-opacity:1;fill-rule:evenodd;stroke:none;stroke-width:0.999999px;stroke-linecap:butt;stroke-linejoin:miter;stroke-opacity:1"
       d="m 104,1050.8622 v -23 c -2.00967,-1.0006 -4.5,-1.5 -7.000002,-1.5 -3.607359,0 -8.010709,0.7092 -11.499999,2.5 -5.97626,3.0673 -7.5,8.6182 -7.5,12.5 0,3.8818 2.38218,7.6302 8.000002,9.5 2.829807,0.9419 6.445689,1.5 9.499997,1.5 3,0 5.958732,-0.52 8.500002,-1.5 z"
       id="path4313"
       inkscape:connector-curvature="0"
       sodipodi:nodetypes="ccsszssc" />
    <path
       style="display:inline;fill:url(#linearGradient4345);fill-opacity:1;fill-rule:evenodd;stroke:none;stroke-width:0.999999px;stroke-linecap:butt;stroke-linejoin:miter;stroke-opacity:1"
       d="m 116,1040.8622 -0.5,-0.5 -5.5,1.5 v 1 z"
       id="path4337"
       inkscape:connector-curvature="0"
       sodipodi:nodetypes="ccccc" />
    <path
       style="display:inline;opacity:1;fill:url(#linearGradient4285);fill-opacity:1;fill-rule:evenodd;stroke:none;stroke-width:0.999999px;stroke-linecap:butt;stroke-linejoin:miter;stroke-opacity:1"
       d="m 104,1050.8622 c 2.03675,-2.0433 2.86539,-4.3226 7.5,-5.5 2,-0.5 3.78843,-2.0145 4.5,-4.5 l -6,1.5 6,-2 c -0.57534,-5.8142 -5.80403,-9.5251 -12,-12.5 z"
       id="path4323"
       inkscape:connector-curvature="0"
       sodipodi:nodetypes="ccccccc" />
    <path
       style="display:inline;fill:url(#radialGradient4335);fill-opacity:1;fill-rule:evenodd;stroke:none;stroke-width:0.999999px;stroke-linecap:butt;stroke-linejoin:miter;stroke-opacity:1"
       d="m 105,1029.8622 c 0.90128,1.5124 2.06053,2.6194 4,2.5 0,-3 -2.5,-4.2651 -4,-2.5 z"
       id="path4325"
       inkscape:connector-curvature="0"
       sodipodi:nodetypes="ccc" />
    <path
       style="display:inline;opacity:1;fill:url(#linearGradient4182-9);fill-opacity:1;fill-rule:evenodd;stroke:none;stroke-width:0.999999px;stroke-linecap:butt;stroke-linejoin:miter;stroke-opacity:1"
       d="m 125.5,1025.8622 c -5.42088,3.9425 -8.5,8.5 -8.5,12.5 0,4 2.92088,8.4425 8.5,12.5 2,1 6.25998,1.4035 9.5,1.5 2.5,0 4.8982,-0.7505 7.5,-2.5 v -23 c -2.55452,-1.6468 -5.5,-2.5 -8,-2.5 -3.11334,0 -7.5,0.5 -9,1.5 z"
       id="path4166-06"
       inkscape:connector-curvature="0"
       sodipodi:nodetypes="csccccsc" />
    <circle
       style="color:#000000;display:inline;overflow:visible;visibility:visible;opacity:1;fill:url(#radialGradient4987);fill-opacity:1;fill-rule:nonzero;stroke:none;stroke-width:0.500001;stroke-linecap:round;stroke-linejoin:round;stroke-miterlimit:4;stroke-dasharray:none;stroke-dashoffset:0;stroke-opacity:0.32549;marker:none;enable-background:accumulate"
       id="path4168-0"
       cx="144.5"
       cy="1029.6122"
       r="2.25" />
    <use
       x="0"
       y="0"
       xlink:href="#path4168-0"
       id="use4170-3"
       transform="matrix(1,0,0,-1,0,2076.7244)"
       width="100%"
       height="100%"
       style="display:inline;opacity:1" />
    <path
       style="display:inline;opacity:1;fill:url(#linearGradient4283);fill-opacity:1;fill-rule:evenodd;stroke:none;stroke-width:0.999999px;stroke-linecap:butt;stroke-linejoin:miter;stroke-opacity:1"
       d="m 142.01071,1050.1858 c 1.5,-1.5 11.98929,-4.3236 12.98929,-11.3236 h -2.5 v -1 h 2.5 c -1.5,-7 -11.00508,-10.3315 -13.00508,-11.3315 z"
       id="path4166-0-2"
       inkscape:connector-curvature="0"
       sodipodi:nodetypes="ccccccc" />
    <path
       style="display:inline;opacity:1;fill:#000000;fill-opacity:0.0627451;fill-rule:evenodd;stroke:none;stroke-width:0.999999px;stroke-linecap:butt;stroke-linejoin:miter;stroke-opacity:1"
       d="m 150,1045.8622 c 2.45291,-1.689 4.57241,-4.0069 5,-7 h -2.5 v -1 h 2.5 c -0.62868,-2.9339 -2.70085,-5.2565 -5,-7 0,0 -5,4.4954 -5,7.5 0,3.0046 5,7.5 5,7.5 z"
       id="path4166-0-2-7"
       inkscape:connector-curvature="0"
       sodipodi:nodetypes="cccccczc" />
  </g>
</svg>
