<?xml version="1.0" encoding="UTF-8" standalone="no"?>
<!-- Created with Inkscape (http://www.inkscape.org/) -->

<svg
   width="25.000011"
   height="120"
   viewBox="0 0 25.000011 120"
   id="svg2"
   version="1.1"
   inkscape:version="1.3.2 (091e20e, 2023-11-25)"
   sodipodi:docname="White_Spectralid.svg"
   inkscape:export-filename="C:\Users\Andre\Dropbox\Programacao\C++\Pikmin_fangame_engine\Game_data\Graphics\White_Spectralid.png"
   inkscape:export-xdpi="96"
   inkscape:export-ydpi="96"
   xmlns:inkscape="http://www.inkscape.org/namespaces/inkscape"
   xmlns:sodipodi="http://sodipodi.sourceforge.net/DTD/sodipodi-0.dtd"
   xmlns:xlink="http://www.w3.org/1999/xlink"
   xmlns="http://www.w3.org/2000/svg"
   xmlns:svg="http://www.w3.org/2000/svg"
   xmlns:rdf="http://www.w3.org/1999/02/22-rdf-syntax-ns#"
   xmlns:cc="http://creativecommons.org/ns#"
   xmlns:dc="http://purl.org/dc/elements/1.1/">
  <title
     id="title878">White Spectralid spritesheet</title>
  <defs
     id="defs4">
    <linearGradient
       id="bottom_wings"
       inkscape:collect="always">
      <stop
         style="stop-color:#0e0e16;stop-opacity:1"
         offset="0"
         id="stop13419" />
      <stop
         id="stop13421"
         offset="0.26316383"
         style="stop-color:#0e0e16;stop-opacity:1" />
      <stop
         style="stop-color:#ededf2;stop-opacity:1"
         offset="0.42105669"
         id="stop13423" />
      <stop
         id="stop13425"
         offset="1"
         style="stop-color:#b6b6cd;stop-opacity:1" />
    </linearGradient>
    <linearGradient
       id="top_wings"
       inkscape:collect="always">
      <stop
         id="stop12465"
         offset="0"
         style="stop-color:#0e0e16;stop-opacity:1" />
      <stop
         style="stop-color:#0e0e16;stop-opacity:1"
         offset="0.26666707"
         id="stop12467" />
      <stop
         style="stop-color:#3030c5;stop-opacity:1"
         offset="0.36666703"
         id="stop12469" />
      <stop
         style="stop-color:#3030c5;stop-opacity:1"
         offset="0.466667"
         id="stop12471" />
      <stop
         id="stop12473"
         offset="0.60000026"
         style="stop-color:#ededf2;stop-opacity:1" />
      <stop
         id="stop12477"
         offset="1"
         style="stop-color:#b6b6cd;stop-opacity:1" />
    </linearGradient>
    <radialGradient
       inkscape:collect="always"
       xlink:href="#bottom_wings"
       id="radialGradient14314"
       gradientUnits="userSpaceOnUse"
       gradientTransform="matrix(1.7270633,7.6147541e-7,3.3153558e-6,0.53979903,-121.632,593.97842)"
       cx="71.004112"
       cy="999.17474"
       fx="71.004112"
       fy="999.17474"
       r="5.5007329" />
    <radialGradient
       inkscape:collect="always"
       xlink:href="#top_wings"
       id="radialGradient14317"
       gradientUnits="userSpaceOnUse"
       gradientTransform="matrix(5.8865149e-6,-0.58605623,1.750029,1.7172763e-6,-1779.9171,1152.1622)"
       cx="29.200005"
       cy="1030.7927"
       fx="29.200005"
       fy="1030.7927"
       r="8" />
    <radialGradient
       inkscape:collect="always"
       xlink:href="#bottom_wings"
       id="radialGradient14331"
       gradientUnits="userSpaceOnUse"
       gradientTransform="matrix(1.7270633,1.6749768e-6,3.3153558e-6,1.1873671,-121.632,-83.4941)"
       cx="71.004112"
       cy="999.17474"
       fx="71.004112"
       fy="999.17474"
       r="5.5007329" />
    <radialGradient
       inkscape:collect="always"
       xlink:href="#top_wings"
       id="radialGradient14334"
       gradientUnits="userSpaceOnUse"
       gradientTransform="matrix(5.8865149e-6,-1.2891166,1.750029,3.777401e-6,-1779.9171,1144.313)"
       cx="29.200005"
       cy="1030.7927"
       fx="29.200005"
       fy="1030.7927"
       r="8" />
    <radialGradient
       inkscape:collect="always"
       xlink:href="#bottom_wings"
       id="radialGradient14348"
       gradientUnits="userSpaceOnUse"
       gradientTransform="matrix(1.7270568,0,5.7514841e-6,1.7270075,-121.634,-647.7201)"
       cx="71.004112"
       cy="999.17474"
       fx="71.004112"
       fy="999.17474"
       r="5.5007329" />
    <radialGradient
       inkscape:collect="always"
       xlink:href="#bottom_wings"
       id="radialGradient14699"
       gradientUnits="userSpaceOnUse"
       gradientTransform="matrix(1.7270633,7.6147541e-7,3.3153558e-6,0.53979903,-121.632,576.97692)"
       cx="71.004112"
       cy="999.17474"
       fx="71.004112"
       fy="999.17474"
       r="5.5007329" />
    <radialGradient
       inkscape:collect="always"
       xlink:href="#top_wings"
       id="radialGradient14702"
       gradientUnits="userSpaceOnUse"
       gradientTransform="matrix(5.8865149e-6,-0.58605623,1.750029,1.7172763e-6,-1779.9171,1135.1607)"
       cx="29.200005"
       cy="1030.7927"
       fx="29.200005"
       fy="1030.7927"
       r="8" />
    <radialGradient
       inkscape:collect="always"
       xlink:href="#top_wings"
       id="radialGradient4223"
       gradientUnits="userSpaceOnUse"
       gradientTransform="matrix(-7.6873221e-6,-1.8750006,1.7500252,-7.1749301e-6,-1779.9128,1138.1196)"
       cx="29.200005"
       cy="1030.7927"
       fx="29.200005"
       fy="1030.7927"
       r="8" />
  </defs>
  <sodipodi:namedview
     id="base"
     pagecolor="#ffffff"
     bordercolor="#666666"
     borderopacity="1.0"
     inkscape:pageopacity="0.0"
     inkscape:pageshadow="2"
     inkscape:zoom="1.5"
     inkscape:cx="32.333333"
     inkscape:cy="46.666667"
     inkscape:document-units="px"
     inkscape:current-layer="layer1"
     showgrid="true"
     inkscape:snap-bbox="true"
     inkscape:bbox-paths="true"
     inkscape:bbox-nodes="true"
     inkscape:snap-bbox-edge-midpoints="true"
     inkscape:snap-bbox-midpoints="true"
     inkscape:snap-global="true"
     inkscape:object-paths="true"
     inkscape:snap-intersection-paths="true"
     inkscape:object-nodes="true"
     inkscape:snap-smooth-nodes="true"
     inkscape:window-width="1872"
     inkscape:window-height="1051"
     inkscape:window-x="48"
     inkscape:window-y="0"
     inkscape:window-maximized="1"
     inkscape:showpageshadow="0"
     inkscape:pagecheckerboard="0"
     inkscape:deskcolor="#d1d1d1">
    <inkscape:grid
       type="xygrid"
       id="grid4147"
       originx="0"
       originy="0"
       spacingy="1"
       spacingx="0.99999999"
       units="px"
       visible="true" />
  </sodipodi:namedview>
  <metadata
     id="metadata7">
    <rdf:RDF>
      <cc:Work
         rdf:about="">
        <dc:format>image/svg+xml</dc:format>
        <dc:type
           rdf:resource="http://purl.org/dc/dcmitype/StillImage" />
        <dc:title>White Spectralid spritesheet</dc:title>
        <dc:description>Spritesheet for the White Spectralid pre-packaged in Pikifen. See https://www.pikminfanon.com/wiki/Pikifen</dc:description>
        <dc:subject>
          <rdf:Bag>
            <rdf:li>Pikifen spritesheet</rdf:li>
          </rdf:Bag>
        </dc:subject>
        <dc:creator>
          <cc:Agent>
            <dc:title>André &quot;Espyo&quot; Silva</dc:title>
          </cc:Agent>
        </dc:creator>
        <cc:license
           rdf:resource="https://opensource.org/licenses/MIT" />
      </cc:Work>
    </rdf:RDF>
  </metadata>
  <g
     inkscape:groupmode="layer"
     id="layer2"
     inkscape:label="Grid"
     style="display:inline"
     transform="translate(1.1444092e-5,-1052.3622)">
    <rect
       style="color:#000000;display:inline;overflow:visible;visibility:visible;opacity:1;fill:#008000;fill-opacity:1;stroke:none;stroke-width:2;stroke-linecap:round;stroke-linejoin:round;stroke-miterlimit:4;stroke-dasharray:none;stroke-dashoffset:0;stroke-opacity:1;marker:none;enable-background:accumulate"
       id="rect4155"
       width="32"
       height="24.999968"
       x="1052.3622"
       y="-24.999975"
       transform="rotate(90)"
       inkscape:export-filename="C:\Users\Andre\Dropbox\Programacao\C++\Pikmin_fangame_engine\Game_data\Graphics\White_Spectralid.png"
       inkscape:export-xdpi="96"
       inkscape:export-ydpi="96" />
    <rect
       style="color:#000000;display:inline;overflow:visible;visibility:visible;opacity:1;fill:#008000;fill-opacity:1;stroke:none;stroke-width:2;stroke-linecap:round;stroke-linejoin:round;stroke-miterlimit:4;stroke-dasharray:none;stroke-dashoffset:0;stroke-opacity:1;marker:none;enable-background:accumulate"
       id="rect4155-9"
       width="22"
       height="24.999945"
       x="1085.3622"
       y="-24.999945"
       transform="rotate(90)"
       inkscape:export-filename="C:\Users\Andre\Dropbox\Programacao\C++\Pikmin_fangame_engine\Game_data\Graphics\White_Spectralid.png"
       inkscape:export-xdpi="96"
       inkscape:export-ydpi="96" />
    <rect
       style="color:#000000;display:inline;overflow:visible;visibility:visible;opacity:1;fill:#008000;fill-opacity:1;stroke:none;stroke-width:2;stroke-linecap:round;stroke-linejoin:round;stroke-miterlimit:4;stroke-dasharray:none;stroke-dashoffset:0;stroke-opacity:1;marker:none;enable-background:accumulate"
       id="rect4155-9-7"
       width="10"
       height="24.999945"
       x="1108.3622"
       y="-24.999969"
       transform="rotate(90)"
       inkscape:export-filename="C:\Users\Andre\Dropbox\Programacao\C++\Pikmin_fangame_engine\Game_data\Graphics\White_Spectralid.png"
       inkscape:export-xdpi="96"
       inkscape:export-ydpi="96" />
    <rect
       style="color:#000000;display:inline;overflow:visible;visibility:visible;opacity:1;fill:#008000;fill-opacity:1;stroke:none;stroke-width:2;stroke-linecap:round;stroke-linejoin:round;stroke-miterlimit:4;stroke-dasharray:none;stroke-dashoffset:0;stroke-opacity:1;marker:none;enable-background:accumulate"
       id="rect4155-9-7-9"
       width="16.000023"
       height="24.999945"
       x="1119.3622"
       y="-25"
       transform="rotate(90)"
       inkscape:export-filename="C:\Users\Andre\Dropbox\Programacao\C++\Pikmin_fangame_engine\Game_data\Graphics\White_Spectralid.png"
       inkscape:export-xdpi="96"
       inkscape:export-ydpi="96" />
    <rect
       style="color:#000000;display:inline;overflow:visible;visibility:visible;opacity:1;fill:#008000;fill-opacity:1;stroke:none;stroke-width:2;stroke-linecap:round;stroke-linejoin:round;stroke-miterlimit:4;stroke-dasharray:none;stroke-dashoffset:0;stroke-opacity:1;marker:none;enable-background:accumulate"
       id="rect4155-6"
       width="18.000023"
       height="24.999968"
       x="1136.3622"
       y="-24.999968"
       transform="rotate(90)"
       inkscape:export-filename="C:\Users\Andre\Dropbox\Programacao\C++\Pikmin_fangame_engine\Game_data\Graphics\White_Spectralid.png"
       inkscape:export-xdpi="96"
       inkscape:export-ydpi="96" />
    <rect
       style="color:#000000;display:inline;overflow:visible;visibility:visible;opacity:1;fill:#008000;fill-opacity:1;stroke:none;stroke-width:2;stroke-linecap:round;stroke-linejoin:round;stroke-miterlimit:4;stroke-dasharray:none;stroke-dashoffset:0;stroke-opacity:1;marker:none;enable-background:accumulate"
       id="rect4155-0"
       width="16.998558"
       height="24.999968"
       x="1155.3636"
       y="-24.999968"
       transform="rotate(90)"
       inkscape:export-filename="C:\Users\Andre\Dropbox\Programacao\C++\Pikmin_fangame_engine\Game_data\Graphics\White_Spectralid.png"
       inkscape:export-xdpi="96"
       inkscape:export-ydpi="96" />
  </g>
  <g
     inkscape:label="Sprites"
     inkscape:groupmode="layer"
     id="layer1"
     style="display:inline"
     transform="translate(1.1444092e-5,-1052.3622)">
    <path
       style="display:inline;opacity:1;fill:#0e0e16;fill-opacity:1;fill-rule:evenodd;stroke:none;stroke-width:1px;stroke-linecap:butt;stroke-linejoin:miter;stroke-opacity:1"
       d="m 14.499992,1152.3622 c 3,0.5 5.000008,0.5 8.000008,1.5 -3,-0.5 -5.666708,-0.7337 -8.500008,-1 8e-6,0.5 8e-6,0.5 -0.499992,0.5 H 5.4999924 c 0,0 -1.5,0 -1.5,-1 0,-1 1.5,-1 1.5,-1 h 8.4999996 v 0.5 c 2.8686,-0.2787 5.6898,-1.0792 8.5,-2 -2.5918,1.7032 -5,2 -8,2.5 z"
       id="path4181-8"
       inkscape:connector-curvature="0"
       sodipodi:nodetypes="ccccczccccc"
       inkscape:export-filename="C:\Users\Andre\Dropbox\Programacao\C++\Pikmin_fangame_engine\Game_data\Graphics\White_Spectralid.png"
       inkscape:export-xdpi="96"
       inkscape:export-ydpi="96" />
    <path
       style="display:inline;opacity:1;fill:#0e0e16;fill-opacity:1;fill-rule:evenodd;stroke:none;stroke-width:1px;stroke-linecap:butt;stroke-linejoin:miter;stroke-opacity:1"
       d="m 14.499993,1171.3637 c 3,0.5 5.499996,0 7.999996,-0.5015 -3.388685,1.1541 -5.692762,1.3645 -8.499996,1.0015 -4e-6,0.4985 -4e-6,0.4985 -0.500004,0.4985 H 5.4999934 c 0,0 -1.5,0 -1.5,-1 0,-1 1.5,-1 1.5,-1 h 8.4999996 v 0.5 c 2.8686,-0.2787 5.6898,-1.0792 8.5,-2 -2.5918,1.7032 -5,2 -8,2.5 z"
       id="path4181-2"
       inkscape:connector-curvature="0"
       sodipodi:nodetypes="ccccczccccc"
       inkscape:export-filename="C:\Users\Andre\Dropbox\Programacao\C++\Pikmin_fangame_engine\Game_data\Graphics\White_Spectralid.png"
       inkscape:export-xdpi="96"
       inkscape:export-ydpi="96" />
    <path
       style="opacity:1;fill:#0e0e16;fill-opacity:1;fill-rule:evenodd;stroke:none;stroke-width:1px;stroke-linecap:butt;stroke-linejoin:miter;stroke-opacity:1"
       d="m 14.5,1068.3622 c 3,0.5 5.2541,1.1271 8,2.5 -2.8333,-0.9056 -5.6667,-1.7337 -8.5,-2 v 0.5 H 5.5 c 0,0 -1.5,0 -1.5,-1 0,-1 1.5,-1 1.5,-1 H 14 v 0.5 c 2.8686,-0.2787 5.6898,-1.0792 8.5,-2 -2.5918,1.7032 -5,2 -8,2.5 z"
       id="path4181"
       inkscape:connector-curvature="0"
       sodipodi:nodetypes="ccccczccccc"
       inkscape:export-filename="C:\Users\Andre\Dropbox\Programacao\C++\Pikmin_fangame_engine\Game_data\Graphics\White_Spectralid.png"
       inkscape:export-xdpi="96"
       inkscape:export-ydpi="96" />
    <path
       style="opacity:1;fill:url(#radialGradient4223);fill-opacity:1;fill-rule:evenodd;stroke:none;stroke-width:1px;stroke-linecap:butt;stroke-linejoin:miter;stroke-opacity:1"
       d="m 25,1080.3622 c 0,2 -1,4 -4,4 -3,0 -7.5,-1.5 -10,-4 -2,-2.5 -1,-8 -0.5,-12 7.5,0 14.3313,7.0206 14.5,12 z"
       id="path4173"
       inkscape:connector-curvature="0"
       sodipodi:nodetypes="csccc"
       inkscape:export-filename="C:\Users\Andre\Dropbox\Programacao\C++\Pikmin_fangame_engine\Game_data\Graphics\White_Spectralid.png"
       inkscape:export-xdpi="96"
       inkscape:export-ydpi="96" />
    <path
       style="opacity:1;fill:url(#radialGradient14348);fill-opacity:1;fill-rule:evenodd;stroke:none;stroke-width:1px;stroke-linecap:butt;stroke-linejoin:miter;stroke-opacity:1"
       d="m 10.5,1068.3622 c 0,0 -1,7 -1.5,8 -0.5,1 -2.5,3 -5.5581,3 -3.058,0 -3.4419,-3.25 -3.4419,-4.5 0,-1.25 2.6026,-6.603 10.5,-6.5 z"
       id="path4175"
       inkscape:connector-curvature="0"
       sodipodi:nodetypes="czzzc"
       inkscape:export-filename="C:\Users\Andre\Dropbox\Programacao\C++\Pikmin_fangame_engine\Game_data\Graphics\White_Spectralid.png"
       inkscape:export-xdpi="96"
       inkscape:export-ydpi="96" />
    <use
       x="0"
       y="0"
       xlink:href="#path4173"
       id="use4177"
       transform="matrix(1,0,0,-1,-4.7244096e-6,2136.7244)"
       width="100%"
       height="100%"
       inkscape:export-filename="C:\Users\Andre\Dropbox\Programacao\C++\Pikmin_fangame_engine\Game_data\Graphics\White_Spectralid.png"
       inkscape:export-xdpi="96"
       inkscape:export-ydpi="96" />
    <use
       x="0"
       y="0"
       xlink:href="#path4175"
       id="use4179"
       transform="matrix(1,0,0,-1,-4.7244096e-6,2136.7229)"
       width="100%"
       height="100%"
       inkscape:export-filename="C:\Users\Andre\Dropbox\Programacao\C++\Pikmin_fangame_engine\Game_data\Graphics\White_Spectralid.png"
       inkscape:export-xdpi="96"
       inkscape:export-ydpi="96" />
    <path
       style="opacity:1;fill:#0e0e16;fill-opacity:1;fill-rule:evenodd;stroke:none;stroke-width:1px;stroke-linecap:butt;stroke-linejoin:miter;stroke-opacity:1"
       d="m 14.5,1096.3622 c 3,0.5 5.2541,1.1271 8,2.5 -2.8333,-0.9056 -5.6667,-1.7337 -8.5,-2 v 0.5 H 5.5 c 0,0 -1.5,0 -1.5,-1 0,-1 1.5,-1 1.5,-1 H 14 v 0.5 c 2.8686,-0.2787 5.6898,-1.0792 8.5,-2 -2.5918,1.7032 -5,2 -8,2.5 z"
       id="path4181-1"
       inkscape:connector-curvature="0"
       sodipodi:nodetypes="ccccczccccc"
       inkscape:export-filename="C:\Users\Andre\Dropbox\Programacao\C++\Pikmin_fangame_engine\Game_data\Graphics\White_Spectralid.png"
       inkscape:export-xdpi="96"
       inkscape:export-ydpi="96" />
    <path
       style="opacity:1;fill:url(#radialGradient14334);fill-opacity:1;fill-rule:evenodd;stroke:none;stroke-width:1px;stroke-linecap:butt;stroke-linejoin:miter;stroke-opacity:1"
       d="m 25,1104.6121 c 0,1.375 -1,2.7501 -4,2.7501 -3,0 -7.5,-1.0313 -10,-2.7501 -2,-1.7188 -1,-5.5002 -0.5,-8.2504 7.5,0 14.3313,4.8269 14.5,8.2504 z"
       id="path4173-1"
       inkscape:connector-curvature="0"
       sodipodi:nodetypes="csccc"
       inkscape:export-filename="C:\Users\Andre\Dropbox\Programacao\C++\Pikmin_fangame_engine\Game_data\Graphics\White_Spectralid.png"
       inkscape:export-xdpi="96"
       inkscape:export-ydpi="96" />
    <path
       style="opacity:1;fill:url(#radialGradient14331);fill-opacity:1;fill-rule:evenodd;stroke:none;stroke-width:1px;stroke-linecap:butt;stroke-linejoin:miter;stroke-opacity:1"
       d="m 10.5,1096.3617 c 0,0 -1,4.8127 -1.5,5.5003 -0.5,0.6875 -2.5,2.0626 -5.5581,2.0626 -3.058,0 -3.4419,-2.2345 -3.4419,-3.0939 0,-0.8594 2.6026,-4.5397 10.5,-4.469 z"
       id="path4175-5"
       inkscape:connector-curvature="0"
       sodipodi:nodetypes="czzzc"
       inkscape:export-filename="C:\Users\Andre\Dropbox\Programacao\C++\Pikmin_fangame_engine\Game_data\Graphics\White_Spectralid.png"
       inkscape:export-xdpi="96"
       inkscape:export-ydpi="96" />
    <use
       x="0"
       y="0"
       xlink:href="#path4173-1"
       id="use4177-7"
       transform="matrix(1,0,0,-1,2.7559054e-7,2192.7244)"
       width="100%"
       height="100%"
       inkscape:export-filename="C:\Users\Andre\Dropbox\Programacao\C++\Pikmin_fangame_engine\Game_data\Graphics\White_Spectralid.png"
       inkscape:export-xdpi="96"
       inkscape:export-ydpi="96" />
    <use
       x="0"
       y="0"
       xlink:href="#path4175-5"
       id="use4179-7"
       transform="matrix(1,0,0,-1,2.7559054e-7,2192.7229)"
       width="100%"
       height="100%"
       inkscape:export-filename="C:\Users\Andre\Dropbox\Programacao\C++\Pikmin_fangame_engine\Game_data\Graphics\White_Spectralid.png"
       inkscape:export-xdpi="96"
       inkscape:export-ydpi="96" />
    <path
       style="opacity:1;fill:#0e0e16;fill-opacity:1;fill-rule:evenodd;stroke:none;stroke-width:1px;stroke-linecap:butt;stroke-linejoin:miter;stroke-opacity:1"
       d="m 14.5,1113.3622 c 3,0.5 5.2541,1.1271 8,2.5 -2.8333,-0.9056 -5.6667,-1.7337 -8.5,-2 v 0.5 H 5.5 c 0,0 -1.5,0 -1.5,-1 0,-1 1.5,-1 1.5,-1 H 14 v 0.5 c 2.8686,-0.2787 5.6898,-1.0792 8.5,-2 -2.5918,1.7032 -5,2 -8,2.5 z"
       id="path4181-1-8"
       inkscape:connector-curvature="0"
       sodipodi:nodetypes="ccccczccccc"
       inkscape:export-filename="C:\Users\Andre\Dropbox\Programacao\C++\Pikmin_fangame_engine\Game_data\Graphics\White_Spectralid.png"
       inkscape:export-xdpi="96"
       inkscape:export-ydpi="96" />
    <path
       style="opacity:1;fill:url(#radialGradient14702);fill-opacity:1;fill-rule:evenodd;stroke:none;stroke-width:1px;stroke-linecap:butt;stroke-linejoin:miter;stroke-opacity:1"
       d="m 25,1117.1119 c 0,0.6252 -1,1.2503 -4,1.2503 -3,0 -7.5,-0.4688 -10,-1.2503 -2,-0.7814 -1,-2.5005 -0.5,-3.7507 7.5,0 14.3313,2.1944 14.5,3.7507 z"
       id="path4173-1-1"
       inkscape:connector-curvature="0"
       sodipodi:nodetypes="csccc"
       inkscape:export-filename="C:\Users\Andre\Dropbox\Programacao\C++\Pikmin_fangame_engine\Game_data\Graphics\White_Spectralid.png"
       inkscape:export-xdpi="96"
       inkscape:export-ydpi="96" />
    <path
       style="opacity:1;fill:url(#radialGradient14699);fill-opacity:1;fill-rule:evenodd;stroke:none;stroke-width:1px;stroke-linecap:butt;stroke-linejoin:miter;stroke-opacity:1"
       d="m 10.5,1113.3612 c 0,0 -1,2.1879 -1.5,2.5005 -0.5,0.3126 -2.5,0.9377 -5.5581,0.9377 -3.058,0 -3.4419,-1.0158 -3.4419,-1.4066 0,-0.3907 2.6026,-2.0638 10.5,-2.0316 z"
       id="path4175-5-3"
       inkscape:connector-curvature="0"
       sodipodi:nodetypes="czzzc"
       inkscape:export-filename="C:\Users\Andre\Dropbox\Programacao\C++\Pikmin_fangame_engine\Game_data\Graphics\White_Spectralid.png"
       inkscape:export-xdpi="96"
       inkscape:export-ydpi="96" />
    <use
       x="0"
       y="0"
       xlink:href="#path4173-1-1"
       id="use4177-7-1"
       transform="matrix(1,0,0,-1,5.7222223e-7,2226.7244)"
       width="100%"
       height="100%"
       inkscape:export-filename="C:\Users\Andre\Dropbox\Programacao\C++\Pikmin_fangame_engine\Game_data\Graphics\White_Spectralid.png"
       inkscape:export-xdpi="96"
       inkscape:export-ydpi="96" />
    <use
       x="0"
       y="0"
       xlink:href="#path4175-5-3"
       id="use4179-7-7"
       transform="matrix(1,0,0,-1,5.7222223e-7,2226.7229)"
       width="100%"
       height="100%"
       inkscape:export-filename="C:\Users\Andre\Dropbox\Programacao\C++\Pikmin_fangame_engine\Game_data\Graphics\White_Spectralid.png"
       inkscape:export-xdpi="96"
       inkscape:export-ydpi="96" />
    <path
       style="opacity:1;fill:#0e0e16;fill-opacity:1;fill-rule:evenodd;stroke:none;stroke-width:1px;stroke-linecap:butt;stroke-linejoin:miter;stroke-opacity:1"
       d="m 14.5,1130.3637 c 3,0.5 5.2541,1.1271 8,2.5 -2.8333,-0.9056 -5.6667,-1.7337 -8.5,-2 v 0.5 H 5.5 c 0,0 -1.5,0 -1.5,-1 0,-1 1.5,-1 1.5,-1 H 14 v 0.5 c 2.8686,-0.2787 5.6898,-1.0792 8.5,-2 -2.5918,1.7032 -5,2 -8,2.5 z"
       id="path4181-1-8-2"
       inkscape:connector-curvature="0"
       sodipodi:nodetypes="ccccczccccc"
       inkscape:export-filename="C:\Users\Andre\Dropbox\Programacao\C++\Pikmin_fangame_engine\Game_data\Graphics\White_Spectralid.png"
       inkscape:export-xdpi="96"
       inkscape:export-ydpi="96" />
    <path
       style="opacity:1;fill:url(#radialGradient14317);fill-opacity:1;fill-rule:evenodd;stroke:none;stroke-width:1px;stroke-linecap:butt;stroke-linejoin:miter;stroke-opacity:1"
       d="m 25,1134.1134 c 0,0.6252 -1,1.2503 -4,1.2503 -3,0 -7.5,-0.4688 -10,-1.2503 -2,-0.7814 -1,-2.5005 -0.5,-3.7507 7.5,0 14.3313,2.1944 14.5,3.7507 z"
       id="path4173-1-1-3"
       inkscape:connector-curvature="0"
       sodipodi:nodetypes="csccc"
       inkscape:export-filename="C:\Users\Andre\Dropbox\Programacao\C++\Pikmin_fangame_engine\Game_data\Graphics\White_Spectralid.png"
       inkscape:export-xdpi="96"
       inkscape:export-ydpi="96" />
    <path
       style="opacity:1;fill:url(#radialGradient14314);fill-opacity:1;fill-rule:evenodd;stroke:none;stroke-width:1px;stroke-linecap:butt;stroke-linejoin:miter;stroke-opacity:1"
       d="m 10.5,1130.3627 c 0,0 -1,2.1879 -1.5,2.5005 -0.5,0.3126 -2.5,0.9377 -5.5581,0.9377 -3.058,0 -3.4419,-1.0158 -3.4419,-1.4066 0,-0.3907 2.6026,-2.0638 10.5,-2.0316 z"
       id="path4175-5-3-0"
       inkscape:connector-curvature="0"
       sodipodi:nodetypes="czzzc"
       inkscape:export-filename="C:\Users\Andre\Dropbox\Programacao\C++\Pikmin_fangame_engine\Game_data\Graphics\White_Spectralid.png"
       inkscape:export-xdpi="96"
       inkscape:export-ydpi="96" />
    <use
       x="0"
       y="0"
       xlink:href="#path4173-1"
       id="use14356"
       transform="matrix(1,0,0,-1,0,2226.7244)"
       width="100%"
       height="100%"
       inkscape:export-filename="C:\Users\Andre\Dropbox\Programacao\C++\Pikmin_fangame_engine\Game_data\Graphics\White_Spectralid.png"
       inkscape:export-xdpi="96"
       inkscape:export-ydpi="96" />
    <use
       x="0"
       y="0"
       xlink:href="#path4175-5"
       id="use14358"
       transform="matrix(1,0,0,-1,0,2226.7244)"
       width="100%"
       height="100%"
       inkscape:export-filename="C:\Users\Andre\Dropbox\Programacao\C++\Pikmin_fangame_engine\Game_data\Graphics\White_Spectralid.png"
       inkscape:export-xdpi="96"
       inkscape:export-ydpi="96" />
    <use
       x="0"
       y="0"
       xlink:href="#path4173"
       id="use14524"
       transform="matrix(1,0,0,-1,0,2220.7244)"
       width="100%"
       height="100%"
       inkscape:export-filename="C:\Users\Andre\Dropbox\Programacao\C++\Pikmin_fangame_engine\Game_data\Graphics\White_Spectralid.png"
       inkscape:export-xdpi="96"
       inkscape:export-ydpi="96" />
    <use
       x="0"
       y="0"
       xlink:href="#path4175"
       id="use14526"
       transform="matrix(1,0,0,-1,0,2220.7244)"
       width="100%"
       height="100%"
       inkscape:export-filename="C:\Users\Andre\Dropbox\Programacao\C++\Pikmin_fangame_engine\Game_data\Graphics\White_Spectralid.png"
       inkscape:export-xdpi="96"
       inkscape:export-ydpi="96" />
    <use
       x="0"
       y="0"
       xlink:href="#path4173"
       id="use14684"
       transform="matrix(1,0,0,-1,-1.1444092e-5,2239.7244)"
       width="100%"
       height="100%"
       inkscape:export-filename="C:\Users\Andre\Dropbox\Programacao\C++\Pikmin_fangame_engine\Game_data\Graphics\White_Spectralid.png"
       inkscape:export-xdpi="96"
       inkscape:export-ydpi="96" />
    <use
       x="0"
       y="0"
       xlink:href="#path4175"
       id="use14686"
       transform="matrix(1,0,0,-1,-1.1444092e-5,2239.7244)"
       width="100%"
       height="100%"
       inkscape:export-filename="C:\Users\Andre\Dropbox\Programacao\C++\Pikmin_fangame_engine\Game_data\Graphics\White_Spectralid.png"
       inkscape:export-xdpi="96"
       inkscape:export-ydpi="96" />
    <path
       style="opacity:1;fill:#000000;fill-opacity:0.226804;fill-rule:evenodd;stroke:none;stroke-width:1px;stroke-linecap:butt;stroke-linejoin:miter;stroke-opacity:1"
       d="m 24.999989,1159.3622 c 0,-2 -1,-4 -4,-4 -3,0 -7.5,1.5 -10,4 -2.0000004,2.5 -1.0000004,8 -0.5,12 7.5,0 14.3313,-7.0206 14.5,-12 z"
       id="path4173-9"
       inkscape:connector-curvature="0"
       sodipodi:nodetypes="csccc"
       inkscape:export-filename="C:\Users\Andre\Dropbox\Programacao\C++\Pikmin_fangame_engine\Game_data\Graphics\White_Spectralid.png"
       inkscape:export-xdpi="96"
       inkscape:export-ydpi="96" />
    <use
       x="0"
       y="0"
       xlink:href="#path4173-1"
       id="use14709"
       transform="matrix(1,0,0,-1,-1.1444092e-5,2267.7239)"
       width="100%"
       height="100%"
       inkscape:export-filename="C:\Users\Andre\Dropbox\Programacao\C++\Pikmin_fangame_engine\Game_data\Graphics\White_Spectralid.png"
       inkscape:export-xdpi="96"
       inkscape:export-ydpi="96" />
    <path
       style="opacity:1;fill:#000000;fill-opacity:0.226804;fill-rule:evenodd;stroke:none;stroke-width:1px;stroke-linecap:butt;stroke-linejoin:miter;stroke-opacity:1"
       d="m 10.499989,1171.3622 c 0,0 -1.0000004,-7 -1.5000004,-8 -0.5,-1 -2.5,-3 -5.5581,-3 -3.05800004,0 -3.441900044092,3.25 -3.441900044092,4.5 0,1.25 2.602600044092,6.603 10.500000444092,6.5 z"
       id="path4175-3"
       inkscape:connector-curvature="0"
       sodipodi:nodetypes="czzzc"
       inkscape:export-filename="C:\Users\Andre\Dropbox\Programacao\C++\Pikmin_fangame_engine\Game_data\Graphics\White_Spectralid.png"
       inkscape:export-xdpi="96"
       inkscape:export-ydpi="96" />
    <use
       x="0"
       y="0"
       xlink:href="#path4175-5"
       id="use14711"
       transform="matrix(1,0,0,-1,-1.1444092e-5,2267.7239)"
       width="100%"
       height="100%"
       inkscape:export-filename="C:\Users\Andre\Dropbox\Programacao\C++\Pikmin_fangame_engine\Game_data\Graphics\White_Spectralid.png"
       inkscape:export-xdpi="96"
       inkscape:export-ydpi="96" />
    <g
       id="g4760"
       style="display:inline"
       transform="translate(-1.1444092e-5,1.7382813e-5)">
      <ellipse
         style="display:inline;fill:#c99379;fill-opacity:0.999921;stroke:none"
         id="path3782"
         inkscape:export-filename="C:\Users\Andre\Dropbox\Programacao\C++\Pikmin_fangame_engine\Documents\Olimar.png"
         inkscape:export-xdpi="96"
         inkscape:export-ydpi="96"
         cx="-6.7031322"
         cy="1036.3622"
         rx="3.203124"
         ry="3.5000007" />
      <circle
         style="display:inline;fill:none;stroke:#00ffff;stroke-width:2;stroke-miterlimit:4;stroke-dasharray:none;stroke-opacity:1"
         id="path3770-7"
         inkscape:export-filename="C:\Users\Andre\Dropbox\Programacao\C++\Pikmin_fangame_engine\Documents\Olimar.png"
         inkscape:export-xdpi="96"
         inkscape:export-ydpi="96"
         cx="-16"
         cy="1036.3622"
         r="15" />
      <circle
         style="display:inline;fill:#d5b284;fill-opacity:1;stroke:none"
         id="path3780"
         inkscape:export-filename="C:\Users\Andre\Dropbox\Programacao\C++\Pikmin_fangame_engine\Documents\Olimar.png"
         inkscape:export-xdpi="96"
         inkscape:export-ydpi="96"
         cx="-18"
         cy="1036.3622"
         r="9.5" />
      <path
         style="display:inline;fill:#000000;fill-opacity:1;stroke:none"
         d="m -12,1034.8622 v -6 h 2 v 6 z"
         id="path3824"
         inkscape:connector-curvature="0"
         inkscape:export-filename="C:\Users\Andre\Dropbox\Programacao\C++\Pikmin_fangame_engine\Documents\Olimar.png"
         inkscape:export-xdpi="96"
         inkscape:export-ydpi="96" />
      <path
         style="display:inline;fill:#000000;fill-opacity:1;stroke:none"
         d="m -12,1043.8622 v -6 h 2 v 6 z"
         id="path3824-4"
         inkscape:connector-curvature="0"
         inkscape:export-filename="C:\Users\Andre\Dropbox\Programacao\C++\Pikmin_fangame_engine\Documents\Olimar.png"
         inkscape:export-xdpi="96"
         inkscape:export-ydpi="96" />
    </g>
  </g>
</svg>
