<?xml version="1.0" encoding="UTF-8" standalone="no"?>
<!-- Created with Inkscape (http://www.inkscape.org/) -->

<svg
   width="68"
   height="68.000031"
   viewBox="0 0 68 68.00003"
   version="1.1"
   id="svg2115"
   inkscape:version="1.3.2 (091e20e, 2023-11-25)"
   sodipodi:docname="Leaves.svg"
   xmlns:inkscape="http://www.inkscape.org/namespaces/inkscape"
   xmlns:sodipodi="http://sodipodi.sourceforge.net/DTD/sodipodi-0.dtd"
   xmlns:xlink="http://www.w3.org/1999/xlink"
   xmlns="http://www.w3.org/2000/svg"
   xmlns:svg="http://www.w3.org/2000/svg"
   xmlns:rdf="http://www.w3.org/1999/02/22-rdf-syntax-ns#"
   xmlns:cc="http://creativecommons.org/ns#"
   xmlns:dc="http://purl.org/dc/elements/1.1/">
  <title
     id="title853">Leaves object spritesheet</title>
  <defs
     id="defs2109">
    <linearGradient
       inkscape:collect="always"
       id="leaf">
      <stop
         style="stop-color:#868d3c;stop-opacity:1"
         offset="0"
         id="stop848" />
      <stop
         style="stop-color:#679813;stop-opacity:1"
         offset="1"
         id="stop850" />
    </linearGradient>
    <clipPath
       clipPathUnits="userSpaceOnUse"
       id="clipPath1051">
      <path
         sodipodi:nodetypes="ccssssssssssssssssssssssssscczc"
         inkscape:connector-curvature="0"
         id="path1053"
         d="m 73,1078.5197 h 4 c 1,0 3,-3 3,-3 1.08376,-1.0838 0.685675,-2.3143 0,-3 l -1,-1 c -1.214819,-1.2149 -1.187378,-3.2318 0,-4 1.39912,-0.9052 0.823303,-3.2155 2,-4 1.860521,-1.2403 2.628783,1.0931 4,1 1.790932,-0.1215 3.214599,-2.1859 5,-2 1.19539,0.1245 1.849718,1.6517 3,2 1.914183,0.5796 5.203404,-0.8703 6,0 0.747291,0.8164 1.21512,2.6534 0.40021,3.5167 -1.400193,1.4833 0.345642,1.4609 0.59979,1.4833 2.32897,0.2057 3.78983,0.1161 5,4 0.37819,1.2138 -1.89033,1.163 -2,4 -0.0894,2.314 2.44533,2.208 3,4 0.31722,1.0248 0.53595,2.0115 0,3 -0.96249,1.7752 -2.72481,3.2003 -4,5 -0.60608,0.8554 -2.46165,-0.8861 -3,0 -0.803076,1.3219 0.739013,2.5787 -1,4 -1.480371,1.2099 -2.913114,0.096 -4,1 -0.862723,0.7179 0.157409,1.784 -1,2 -4.712986,0.8794 -4.319189,0.2256 -6,0 -1.986592,-0.2666 -3.173774,-0.3889 -4,-1 -0.629513,-0.4656 -0.271519,-1.5612 -1,-2 -1.791192,-1.0789 -1.741764,-1.2049 -2,-2 -0.725481,-2.2338 1.359908,-4.574 0,-6 -1.38553,-1.4528 -2,-3 -3,-3 h -4 c 0,0 -2,0 -2,-2 0,-2 2,-2 2,-2 z"
         style="color:#000000;clip-rule:nonzero;display:inline;overflow:visible;visibility:visible;opacity:1;isolation:auto;mix-blend-mode:normal;color-interpolation:sRGB;color-interpolation-filters:linearRGB;solid-color:#000000;solid-opacity:1;vector-effect:none;fill:url(#linearGradient1055);fill-opacity:1;fill-rule:evenodd;stroke:none;stroke-width:0.05;stroke-linecap:square;stroke-linejoin:miter;stroke-miterlimit:4;stroke-dasharray:none;stroke-dashoffset:0;stroke-opacity:1;color-rendering:auto;image-rendering:auto;shape-rendering:auto;text-rendering:auto;enable-background:accumulate" />
    </clipPath>
    <linearGradient
       inkscape:collect="always"
       xlink:href="#leaf"
       id="linearGradient1055"
       gradientUnits="userSpaceOnUse"
       x1="74"
       y1="1080.5197"
       x2="78"
       y2="1080.5197" />
    <filter
       inkscape:collect="always"
       style="color-interpolation-filters:sRGB"
       id="filter1073"
       x="-0.12664615"
       width="1.2532923"
       y="-0.10976"
       height="1.21952">
      <feGaussianBlur
         inkscape:collect="always"
         stdDeviation="1.372"
         id="feGaussianBlur1075" />
    </filter>
    <filter
       inkscape:label="Cross Noise"
       inkscape:menu="Overlays"
       inkscape:menu-tooltip="Adds a small scale screen like graininess"
       style="color-interpolation-filters:sRGB"
       id="filter1091"
       x="0"
       y="0"
       width="1"
       height="1">
      <feTurbulence
         type="fractalNoise"
         numOctaves="5"
         baseFrequency="1"
         seed="0"
         result="result0"
         id="feTurbulence1079" />
      <feConvolveMatrix
         kernelMatrix="-2 0 -2 0 -10 0 -2 0 -2 "
         order="3 3"
         result="result5"
         id="feConvolveMatrix1081" />
      <feColorMatrix
         result="result4"
         values="0"
         type="saturate"
         in="result5"
         id="feColorMatrix1083" />
      <feComposite
         in2="result4"
         in="SourceGraphic"
         operator="arithmetic"
         k1="1.5"
         k2="0.5"
         k3="0.5"
         result="result2"
         id="feComposite1085"
         k4="0" />
      <feBlend
         result="result6"
         in2="result4"
         mode="normal"
         id="feBlend1087" />
      <feComposite
         in2="SourceGraphic"
         in="result6"
         operator="in"
         result="result3"
         id="feComposite1089" />
    </filter>
    <clipPath
       clipPathUnits="userSpaceOnUse"
       id="clipPath1095">
      <use
         x="0"
         y="0"
         xlink:href="#path1008"
         id="use1097"
         width="100%"
         height="100%" />
    </clipPath>
    <linearGradient
       inkscape:collect="always"
       xlink:href="#leaf"
       id="linearGradient1113"
       gradientUnits="userSpaceOnUse"
       x1="74"
       y1="1080.5197"
       x2="78"
       y2="1080.5197" />
    <filter
       inkscape:collect="always"
       style="color-interpolation-filters:sRGB"
       id="filter1195"
       x="-0.035720523"
       width="1.071441"
       y="-0.036283888"
       height="1.0725678">
      <feGaussianBlur
         inkscape:collect="always"
         stdDeviation="0.52094285"
         id="feGaussianBlur1197" />
    </filter>
  </defs>
  <sodipodi:namedview
     id="base"
     pagecolor="#ffffff"
     bordercolor="#666666"
     borderopacity="1.0"
     inkscape:pageopacity="0.0"
     inkscape:pageshadow="2"
     inkscape:zoom="1.5"
     inkscape:cx="46.333333"
     inkscape:cy="66.666667"
     inkscape:document-units="px"
     inkscape:current-layer="layer1"
     showgrid="false"
     inkscape:snap-bbox="true"
     inkscape:bbox-paths="true"
     inkscape:bbox-nodes="true"
     inkscape:snap-bbox-edge-midpoints="true"
     inkscape:snap-bbox-midpoints="true"
     inkscape:object-paths="true"
     inkscape:snap-intersection-paths="true"
     inkscape:snap-smooth-nodes="true"
     inkscape:snap-midpoints="true"
     inkscape:snap-object-midpoints="true"
     inkscape:snap-center="true"
     inkscape:snap-text-baseline="true"
     inkscape:snap-page="true"
     inkscape:window-width="1872"
     inkscape:window-height="1051"
     inkscape:window-x="48"
     inkscape:window-y="0"
     inkscape:window-maximized="1"
     inkscape:showpageshadow="0"
     inkscape:pagecheckerboard="0"
     inkscape:deskcolor="#d1d1d1">
    <inkscape:grid
       type="xygrid"
       id="grid1945"
       originx="0"
       originy="0"
       spacingy="1"
       spacingx="1"
       units="px"
       visible="false" />
  </sodipodi:namedview>
  <metadata
     id="metadata2112">
    <rdf:RDF>
      <cc:Work
         rdf:about="">
        <dc:format>image/svg+xml</dc:format>
        <dc:type
           rdf:resource="http://purl.org/dc/dcmitype/StillImage" />
        <dc:title>Leaves object spritesheet</dc:title>
        <dc:description>Spritesheet for the leaves object pre-packaged in Pikifen. See https://www.pikminfanon.com/wiki/Pikifen</dc:description>
        <dc:creator>
          <cc:Agent>
            <dc:title>André &quot;Espyo&quot; Silva</dc:title>
          </cc:Agent>
        </dc:creator>
        <dc:subject>
          <rdf:Bag>
            <rdf:li>Pikifen spritesheet</rdf:li>
          </rdf:Bag>
        </dc:subject>
        <cc:license
           rdf:resource="https://opensource.org/licenses/MIT" />
      </cc:Work>
    </rdf:RDF>
  </metadata>
  <g
     inkscape:label="Grid"
     inkscape:groupmode="layer"
     id="layer1"
     style="display:inline"
     transform="translate(0,-1054.5197)">
    <g
       transform="translate(0,2.1575174)"
       style="display:inline;opacity:1"
       id="g4760">
      <ellipse
         ry="3.5000007"
         rx="3.203124"
         cy="1036.3622"
         cx="-6.7031322"
         inkscape:export-ydpi="96"
         inkscape:export-xdpi="96"
         inkscape:export-filename="C:\Users\Andre\Dropbox\Programacao\C++\Pikmin_fangame_engine\Documents\Olimar.png"
         id="path3782"
         style="display:inline;fill:#c99379;fill-opacity:0.999921;stroke:none" />
      <circle
         r="15"
         cy="1036.3622"
         cx="-16"
         inkscape:export-ydpi="96"
         inkscape:export-xdpi="96"
         inkscape:export-filename="C:\Users\Andre\Dropbox\Programacao\C++\Pikmin_fangame_engine\Documents\Olimar.png"
         id="path3770"
         style="display:inline;fill:none;stroke:#00ffff;stroke-width:2;stroke-miterlimit:4;stroke-dasharray:none;stroke-opacity:1" />
      <circle
         r="9.5"
         cy="1036.3622"
         cx="-18"
         inkscape:export-ydpi="96"
         inkscape:export-xdpi="96"
         inkscape:export-filename="C:\Users\Andre\Dropbox\Programacao\C++\Pikmin_fangame_engine\Documents\Olimar.png"
         id="path3780"
         style="display:inline;fill:#d5b284;fill-opacity:1;stroke:none" />
      <path
         inkscape:export-ydpi="96"
         inkscape:export-xdpi="96"
         inkscape:export-filename="C:\Users\Andre\Dropbox\Programacao\C++\Pikmin_fangame_engine\Documents\Olimar.png"
         inkscape:connector-curvature="0"
         id="path3824"
         d="m -12,1034.8622 v -6 h 2 v 6 z"
         style="display:inline;fill:#000000;fill-opacity:1;stroke:none" />
      <path
         inkscape:export-ydpi="96"
         inkscape:export-xdpi="96"
         inkscape:export-filename="C:\Users\Andre\Dropbox\Programacao\C++\Pikmin_fangame_engine\Documents\Olimar.png"
         inkscape:connector-curvature="0"
         id="path3824-4"
         d="m -12,1043.8622 v -6 h 2 v 6 z"
         style="display:inline;fill:#000000;fill-opacity:1;stroke:none" />
    </g>
    <rect
       style="color:#000000;clip-rule:nonzero;display:inline;overflow:visible;visibility:visible;opacity:1;isolation:auto;mix-blend-mode:normal;color-interpolation:sRGB;color-interpolation-filters:linearRGB;solid-color:#000000;solid-opacity:1;vector-effect:none;fill:#747934;fill-opacity:1;fill-rule:evenodd;stroke:none;stroke-width:0.05;stroke-linecap:square;stroke-linejoin:miter;stroke-miterlimit:4;stroke-dasharray:none;stroke-dashoffset:0;stroke-opacity:1;color-rendering:auto;image-rendering:auto;shape-rendering:auto;text-rendering:auto;enable-background:accumulate"
       id="rect1115"
       width="68"
       height="68.000031"
       x="0"
       y="1054.5197"
       inkscape:export-filename="/home/andre/Programming/C++/Pikifen/Game_data/Graphics/Leaves.png"
       inkscape:export-xdpi="96"
       inkscape:export-ydpi="96" />
  </g>
  <g
     inkscape:groupmode="layer"
     id="layer2"
     inkscape:label="Sprites"
     style="display:inline;opacity:1"
     transform="translate(0,-1054.5197)">
    <g
       id="g1105"
       inkscape:transform-center-x="-15.662517"
       inkscape:transform-center-y="-0.782918"
       transform="translate(-38.000002,16.000011)">
      <path
         style="color:#000000;clip-rule:nonzero;display:inline;overflow:visible;visibility:visible;opacity:0.5;isolation:auto;mix-blend-mode:normal;color-interpolation:sRGB;color-interpolation-filters:linearRGB;solid-color:#000000;solid-opacity:1;vector-effect:none;fill:#000000;fill-opacity:1;fill-rule:evenodd;stroke:none;stroke-width:0.05;stroke-linecap:square;stroke-linejoin:miter;stroke-miterlimit:4;stroke-dasharray:none;stroke-dashoffset:0;stroke-opacity:1;filter:url(#filter1195);color-rendering:auto;image-rendering:auto;shape-rendering:auto;text-rendering:auto;enable-background:accumulate"
         d="m 72.000002,1078.5197 h 4 c 1,0 3,-3 3,-3 1.08376,-1.0838 0.685675,-2.3143 0,-3 l -1,-1 c -1.214819,-1.2149 -1.187378,-3.2318 0,-4 1.39912,-0.9052 0.823303,-3.2155 2,-4 1.860521,-1.2403 2.628783,1.0931 4,1 1.790932,-0.1215 3.214599,-2.1859 5,-2 1.19539,0.1245 1.849718,1.6517 3,2 1.914183,0.5796 5.203404,-0.8703 6,0 0.747291,0.8164 1.21512,2.6534 0.40021,3.5167 -1.400193,1.4833 0.345642,1.4609 0.59979,1.4833 2.328968,0.2057 3.789828,0.1161 4.999998,4 0.37819,1.2138 -1.89033,1.163 -2,4 -0.0894,2.314 3,2.1241 3,4 0,1 0.0502,2.3915 -0.48556,3.38 -0.96249,1.7752 -2.23925,2.8203 -3.51444,4.62 -0.60608,0.8554 -2.461648,-0.8861 -2.999998,0 -0.803076,1.3219 0.739013,2.5787 -1,4 -1.480371,1.2099 -2.913114,0.096 -4,1 -0.862723,0.7179 0.157409,1.784 -1,2 -4.712986,0.8794 -4.319189,0.2256 -6,0 -1.986592,-0.2666 -3.173774,-0.3889 -4,-1 -0.629513,-0.4656 -0.271519,-1.5612 -1,-2 -1.791192,-1.0789 -1.741764,-1.2049 -2,-2 -0.725481,-2.2338 1.359908,-4.574 0,-6 -1.38553,-1.4528 -2,-3 -3,-3 h -4 c 0,0 -2,0 -2,-2 0,-2 2,-2 2,-2 z"
         id="use1119"
         inkscape:connector-curvature="0"
         sodipodi:nodetypes="ccssssssssssssssssssssssssscczc" />
      <path
         sodipodi:nodetypes="ccssssssssssssssssssssssssscczc"
         inkscape:connector-curvature="0"
         id="path1008"
         d="m 73,1078.5197 h 4 c 1,0 3,-3 3,-3 1.08376,-1.0838 0.685675,-2.3143 0,-3 l -1,-1 c -1.214819,-1.2149 -1.187378,-3.2318 0,-4 1.39912,-0.9052 0.823303,-3.2155 2,-4 1.860521,-1.2403 2.628783,1.0931 4,1 1.790932,-0.1215 3.214599,-2.1859 5,-2 1.19539,0.1245 1.849718,1.6517 3,2 1.914183,0.5796 5.203404,-0.8703 6,0 0.747291,0.8164 1.21512,2.6534 0.40021,3.5167 -1.400193,1.4833 0.345642,1.4609 0.59979,1.4833 2.32897,0.2057 3.78983,0.1161 5,4 0.37819,1.2138 -1.89033,1.163 -2,4 -0.0894,2.314 3,2.1241 3,4 0,1 0.0502,2.3915 -0.48556,3.38 -0.96249,1.7752 -2.23925,2.8203 -3.51444,4.62 -0.60608,0.8554 -2.46165,-0.8861 -3,0 -0.803076,1.3219 0.739013,2.5787 -1,4 -1.480371,1.2099 -2.913114,0.096 -4,1 -0.862723,0.7179 0.157409,1.784 -1,2 -4.712986,0.8794 -4.319189,0.2256 -6,0 -1.986592,-0.2666 -3.173774,-0.3889 -4,-1 -0.629513,-0.4656 -0.271519,-1.5612 -1,-2 -1.791192,-1.0789 -1.741764,-1.2049 -2,-2 -0.725481,-2.2338 1.359908,-4.574 0,-6 -1.38553,-1.4528 -2,-3 -3,-3 h -4 c 0,0 -2,0 -2,-2 0,-2 2,-2 2,-2 z"
         style="color:#000000;clip-rule:nonzero;display:inline;overflow:visible;visibility:visible;opacity:1;isolation:auto;mix-blend-mode:normal;color-interpolation:sRGB;color-interpolation-filters:linearRGB;solid-color:#000000;solid-opacity:1;vector-effect:none;fill:url(#linearGradient1113);fill-opacity:1;fill-rule:evenodd;stroke:none;stroke-width:0.05;stroke-linecap:square;stroke-linejoin:miter;stroke-miterlimit:4;stroke-dasharray:none;stroke-dashoffset:0;stroke-opacity:1;color-rendering:auto;image-rendering:auto;shape-rendering:auto;text-rendering:auto;enable-background:accumulate" />
      <use
         clip-path="url(#clipPath1095)"
         style="opacity:0.2;filter:url(#filter1091)"
         id="use1077"
         xlink:href="#path1008"
         y="0"
         x="0"
         width="100%"
         height="100%" />
      <path
         style="color:#000000;clip-rule:nonzero;display:inline;overflow:visible;visibility:visible;opacity:0.6;isolation:auto;mix-blend-mode:normal;color-interpolation:sRGB;color-interpolation-filters:linearRGB;solid-color:#000000;solid-opacity:1;vector-effect:none;fill:#476516;fill-opacity:1;fill-rule:evenodd;stroke:none;stroke-width:0.05;stroke-linecap:square;stroke-linejoin:miter;stroke-miterlimit:4;stroke-dasharray:none;stroke-dashoffset:0;stroke-opacity:1;filter:url(#filter1073);color-rendering:auto;image-rendering:auto;shape-rendering:auto;text-rendering:auto;enable-background:accumulate"
         d="m 80,1078.5197 -2,3 2,3 3,1 8,11 2,-1 -6,-10 10,3 4,-2 -15,-5 h 18 l -1,-3 -16,1 10,-9 -1,-2 -11,10 1,-11 -2,-1 z"
         id="path1099"
         inkscape:connector-curvature="0"
         sodipodi:nodetypes="ccccccccccccccccccc"
         clip-path="url(#clipPath1051)" />
      <path
         clip-path="url(#clipPath1051)"
         sodipodi:nodetypes="ccccccccccccccccccc"
         inkscape:connector-curvature="0"
         id="path1037"
         d="m 79,1077.5197 -2,3 2,3 3,1 8,11 2,-1 -6,-10 10,3 4,-2 -15,-5 h 18 l -1,-3 -16,1 10,-9 -1,-2 -11,10 1,-11 -2,-1 z"
         style="color:#000000;clip-rule:nonzero;display:inline;overflow:visible;visibility:visible;opacity:0.6;isolation:auto;mix-blend-mode:normal;color-interpolation:sRGB;color-interpolation-filters:linearRGB;solid-color:#000000;solid-opacity:1;vector-effect:none;fill:#81b528;fill-opacity:1;fill-rule:evenodd;stroke:none;stroke-width:0.05;stroke-linecap:square;stroke-linejoin:miter;stroke-miterlimit:4;stroke-dasharray:none;stroke-dashoffset:0;stroke-opacity:1;filter:url(#filter1073);color-rendering:auto;image-rendering:auto;shape-rendering:auto;text-rendering:auto;enable-background:accumulate" />
    </g>
    <use
       x="0"
       y="0"
       xlink:href="#g1105"
       inkscape:transform-center-x="5.7126759"
       inkscape:transform-center-y="-18.101325"
       id="use1107"
       transform="matrix(-0.29424664,-1.1229174,0.88457204,-0.37353055,-926.8829,1541.6583)"
       width="100%"
       height="100%" />
    <use
       x="0"
       y="0"
       xlink:href="#g1105"
       inkscape:transform-center-x="14.392675"
       inkscape:transform-center-y="9.18954"
       id="use1109"
       transform="matrix(-0.87592853,0.49023501,-0.53910954,-0.71750474,652.8752,1867.8788)"
       width="100%"
       height="100%"
       style="display:inline" />
  </g>
</svg>
