<?xml version="1.0" encoding="UTF-8" standalone="no"?>
<!-- Created with Inkscape (http://www.inkscape.org/) -->

<svg
   xmlns:dc="http://purl.org/dc/elements/1.1/"
   xmlns:cc="http://creativecommons.org/ns#"
   xmlns:rdf="http://www.w3.org/1999/02/22-rdf-syntax-ns#"
   xmlns:svg="http://www.w3.org/2000/svg"
   xmlns="http://www.w3.org/2000/svg"
   xmlns:sodipodi="http://sodipodi.sourceforge.net/DTD/sodipodi-0.dtd"
   xmlns:inkscape="http://www.inkscape.org/namespaces/inkscape"
   width="744.09448819"
   height="1052.3622047"
   id="svg2"
   version="1.1"
   inkscape:version="0.48.4 r9939"
   sodipodi:docname="Button icons.svg">
  <defs
     id="defs4" />
  <sodipodi:namedview
     id="base"
     pagecolor="#ffffff"
     bordercolor="#666666"
     borderopacity="1.0"
     inkscape:pageopacity="0.0"
     inkscape:pageshadow="2"
     inkscape:zoom="5.6568542"
     inkscape:cx="98.117467"
     inkscape:cy="6.3369317"
     inkscape:document-units="px"
     inkscape:current-layer="layer1"
     showgrid="true"
     inkscape:window-width="1230"
     inkscape:window-height="781"
     inkscape:window-x="265"
     inkscape:window-y="148"
     inkscape:window-maximized="0">
    <inkscape:grid
       type="xygrid"
       id="grid2985" />
  </sodipodi:namedview>
  <metadata
     id="metadata7">
    <rdf:RDF>
      <cc:Work
         rdf:about="">
        <dc:format>image/svg+xml</dc:format>
        <dc:type
           rdf:resource="http://purl.org/dc/dcmitype/StillImage" />
        <dc:title></dc:title>
      </cc:Work>
    </rdf:RDF>
  </metadata>
  <g
     inkscape:label="Layer 1"
     inkscape:groupmode="layer"
     id="layer1">
    <path
       style="fill:#000000;fill-opacity:1;stroke:none"
       d="m 0,1052.3622 0,-16 c 0,-12 4,-16 16,-16 12,0 16,4 16,16 l 0,16 z"
       id="path2987-4"
       inkscape:connector-curvature="0"
       sodipodi:nodetypes="cccccc"
       inkscape:export-filename="/home/asilva/Outros/pfe/Game_data/Graphics/Mouse_button_1_icon.png"
       inkscape:export-xdpi="90"
       inkscape:export-ydpi="90" />
    <path
       style="fill:#303030;stroke:none;stroke-width:1px;stroke-linecap:butt;stroke-linejoin:miter;stroke-opacity:1;fill-opacity:1"
       d="m 2,1043.3622 0,-4 4,-12 9,-5 2,0 8,3 5,15 0,2 0,1 z"
       id="path3036"
       inkscape:connector-curvature="0"
       sodipodi:nodetypes="cccccccccc"
       inkscape:export-filename="/home/asilva/Outros/pfe/Game_data/Graphics/Mouse_button_1_icon.png"
       inkscape:export-xdpi="90"
       inkscape:export-ydpi="90" />
    <path
       style="fill:#808080;fill-opacity:1;stroke:none"
       d="m 17,1040.3622 0,-4 2,0 c 1,0 2,-1 2,-2 l 0,-8 c 0,-1 -1,-2 -2,-2 l -2,0 0,-2 c 10,0 13,4 13,14 l 0,4 z"
       id="path2987"
       inkscape:connector-curvature="0"
       sodipodi:nodetypes="ccsccsccccc"
       inkscape:export-filename="/home/asilva/Outros/pfe/Game_data/Graphics/Mouse_button_1_icon.png"
       inkscape:export-xdpi="90"
       inkscape:export-ydpi="90" />
    <path
       style="fill:#ffffff;fill-opacity:1;stroke:none"
       d="m 15,1040.3622 0,-4 -2,0 c -1,0 -2,-1 -2,-2 l 0,-8 c 0,-1 1,-2 2,-2 l 2,0 0,-2 c -8,0 -13,4 -13,14 l 0,4 z"
       id="path3757"
       inkscape:connector-curvature="0"
       sodipodi:nodetypes="ccsccsccccc"
       inkscape:export-filename="/home/asilva/Outros/pfe/Game_data/Graphics/Mouse_button_1_icon.png"
       inkscape:export-xdpi="90"
       inkscape:export-ydpi="90" />
    <path
       style="fill:#808080;fill-opacity:1;stroke:none"
       d="m 2,1042.3622 28,0 0,8 -28,0 z"
       id="path3777"
       inkscape:connector-curvature="0"
       sodipodi:nodetypes="ccccc"
       inkscape:export-filename="/home/asilva/Outros/pfe/Game_data/Graphics/Mouse_button_1_icon.png"
       inkscape:export-xdpi="90"
       inkscape:export-ydpi="90" />
    <path
       style="fill:#808080;fill-opacity:1;stroke:none"
       d="m 13,1027.3622 1,-1 4,0 1,1 0,6 -1,1 -4,0 -1,-1 z"
       id="path3806"
       inkscape:connector-curvature="0"
       sodipodi:nodetypes="ccccccccc"
       inkscape:export-filename="/home/asilva/Outros/pfe/Game_data/Graphics/Mouse_button_1_icon.png"
       inkscape:export-xdpi="90"
       inkscape:export-ydpi="90" />
    <path
       style="fill:#000000;fill-opacity:1;stroke:none"
       d="m 34,1052.3622 0,-16 c 0,-12 4,-16 16,-16 12,0 16,4 16,16 l 0,16 z"
       id="path2987-4-0"
       inkscape:connector-curvature="0"
       sodipodi:nodetypes="cccccc"
       inkscape:export-filename="/home/asilva/Outros/pfe/Game_data/Graphics/Mouse_button_2_icon.png"
       inkscape:export-xdpi="90"
       inkscape:export-ydpi="90" />
    <path
       style="fill:#303030;fill-opacity:1;stroke:none"
       d="m 36,1043.3622 0,-4 4,-12 9,-5 2,0 8,3 5,15 0,2 0,1 z"
       id="path3036-6"
       inkscape:connector-curvature="0"
       sodipodi:nodetypes="cccccccccc"
       inkscape:export-filename="/home/asilva/Outros/pfe/Game_data/Graphics/Mouse_button_2_icon.png"
       inkscape:export-xdpi="90"
       inkscape:export-ydpi="90" />
    <path
       style="fill:#ffffff;fill-opacity:1;stroke:none"
       d="m 51,1040.3622 0,-4 2,0 c 1,0 2,-1 2,-2 l 0,-8 c 0,-1 -1,-2 -2,-2 l -2,0 0,-2 c 10,0 13,4 13,14 l 0,4 z"
       id="path2987-3"
       inkscape:connector-curvature="0"
       sodipodi:nodetypes="ccsccsccccc"
       inkscape:export-filename="/home/asilva/Outros/pfe/Game_data/Graphics/Mouse_button_2_icon.png"
       inkscape:export-xdpi="90"
       inkscape:export-ydpi="90" />
    <path
       style="fill:#808080;fill-opacity:1;stroke:none"
       d="m 49,1040.3622 0,-4 -2,0 c -1,0 -2,-1 -2,-2 l 0,-8 c 0,-1 1,-2 2,-2 l 2,0 0,-2 c -8,0 -13,4 -13,14 l 0,4 z"
       id="path3757-2"
       inkscape:connector-curvature="0"
       sodipodi:nodetypes="ccsccsccccc"
       inkscape:export-filename="/home/asilva/Outros/pfe/Game_data/Graphics/Mouse_button_2_icon.png"
       inkscape:export-xdpi="90"
       inkscape:export-ydpi="90" />
    <path
       style="fill:#808080;fill-opacity:1;stroke:none"
       d="m 36,1042.3622 28,0 0,8 -28,0 z"
       id="path3777-9"
       inkscape:connector-curvature="0"
       sodipodi:nodetypes="ccccc"
       inkscape:export-filename="/home/asilva/Outros/pfe/Game_data/Graphics/Mouse_button_2_icon.png"
       inkscape:export-xdpi="90"
       inkscape:export-ydpi="90" />
    <path
       style="fill:#808080;fill-opacity:1;stroke:none"
       d="m 47,1027.3622 1,-1 4,0 1,1 0,6 -1,1 -4,0 -1,-1 z"
       id="path3806-9"
       inkscape:connector-curvature="0"
       sodipodi:nodetypes="ccccccccc"
       inkscape:export-filename="/home/asilva/Outros/pfe/Game_data/Graphics/Mouse_button_2_icon.png"
       inkscape:export-xdpi="90"
       inkscape:export-ydpi="90" />
    <path
       style="fill:#000000;fill-opacity:1;stroke:none"
       d="m 68,1052.3622 0,-16 c 0,-12 4,-16 16,-16 12,0 16,4 16,16 l 0,16 z"
       id="path2987-4-5"
       inkscape:connector-curvature="0"
       sodipodi:nodetypes="cccccc"
       inkscape:export-filename="/home/asilva/Outros/pfe/Game_data/Graphics/Mouse_button_3_icon.png"
       inkscape:export-xdpi="90"
       inkscape:export-ydpi="90" />
    <path
       style="fill:#303030;fill-opacity:1;stroke:none"
       d="m 70,1043.3622 0,-4 4,-12 9,-5 2,0 8,3 5,15 0,2 0,1 z"
       id="path3036-7"
       inkscape:connector-curvature="0"
       sodipodi:nodetypes="cccccccccc"
       inkscape:export-filename="/home/asilva/Outros/pfe/Game_data/Graphics/Mouse_button_3_icon.png"
       inkscape:export-xdpi="90"
       inkscape:export-ydpi="90" />
    <path
       style="fill:#808080;fill-opacity:1;stroke:none"
       d="m 85,1040.3622 0,-4 2,0 c 1,0 2,-1 2,-2 l 0,-8 c 0,-1 -1,-2 -2,-2 l -2,0 0,-2 c 10,0 13,4 13,14 l 0,4 z"
       id="path2987-34"
       inkscape:connector-curvature="0"
       sodipodi:nodetypes="ccsccsccccc"
       inkscape:export-filename="/home/asilva/Outros/pfe/Game_data/Graphics/Mouse_button_3_icon.png"
       inkscape:export-xdpi="90"
       inkscape:export-ydpi="90" />
    <path
       style="fill:#808080;fill-opacity:1;stroke:none"
       d="m 83,1040.3622 0,-4 -2,0 c -1,0 -2,-1 -2,-2 l 0,-8 c 0,-1 1,-2 2,-2 l 2,0 0,-2 c -8,0 -13,4 -13,14 l 0,4 z"
       id="path3757-5"
       inkscape:connector-curvature="0"
       sodipodi:nodetypes="ccsccsccccc"
       inkscape:export-filename="/home/asilva/Outros/pfe/Game_data/Graphics/Mouse_button_3_icon.png"
       inkscape:export-xdpi="90"
       inkscape:export-ydpi="90" />
    <path
       style="fill:#808080;fill-opacity:1;stroke:none"
       d="m 70,1042.3622 28,0 0,8 -28,0 z"
       id="path3777-4"
       inkscape:connector-curvature="0"
       sodipodi:nodetypes="ccccc"
       inkscape:export-filename="/home/asilva/Outros/pfe/Game_data/Graphics/Mouse_button_3_icon.png"
       inkscape:export-xdpi="90"
       inkscape:export-ydpi="90" />
    <path
       style="fill:#ffffff;fill-opacity:1;stroke:none"
       d="m 81,1027.3622 1,-1 4,0 1,1 0,6 -1,1 -4,0 -1,-1 z"
       id="path3806-5"
       inkscape:connector-curvature="0"
       sodipodi:nodetypes="ccccccccc"
       inkscape:export-filename="/home/asilva/Outros/pfe/Game_data/Graphics/Mouse_button_3_icon.png"
       inkscape:export-xdpi="90"
       inkscape:export-ydpi="90" />
    <path
       style="fill:#000000;fill-opacity:1;stroke:none"
       d="m 102,1052.3622 0.0165,-30.3867 c 2.49149,-1.3575 4.75313,-1.5904 8.98353,-1.6133 12,0 16,4 16,16 l 0,16 z"
       id="path2987-4-5-2"
       inkscape:connector-curvature="0"
       sodipodi:nodetypes="cccccc"
       inkscape:export-filename="/home/asilva/Outros/pfe/Game_data/Graphics/Mouse_icon_3.png"
       inkscape:export-xdpi="90"
       inkscape:export-ydpi="90" />
    <path
       style="fill:#303030;fill-opacity:1;stroke:none"
       d="m 104,1043.3622 0,-19 6,-2 2,0 8,3 5,15 0,2 0,1 z"
       id="path3036-64"
       inkscape:connector-curvature="0"
       sodipodi:nodetypes="ccccccccc" />
    <path
       style="fill:#808080;fill-opacity:1;stroke:none"
       d="m 112,1040.3622 0,-4 2,0 c 1,0 2,-1 2,-2 l 0,-8 c 0,-1 -1,-2 -2,-2 l -2,0 0,-2 c 10,0 13,4 13,14 l 0,4 z"
       id="path2987-34-7"
       inkscape:connector-curvature="0"
       sodipodi:nodetypes="ccsccsccccc"
       inkscape:export-filename="/home/asilva/Outros/pfe/Game_data/Graphics/Mouse_icon_3.png"
       inkscape:export-xdpi="90"
       inkscape:export-ydpi="90" />
    <path
       style="fill:#808080;fill-opacity:1;stroke:none"
       d="m 110,1040.3622 0,-4 -2,0 c -1,0 -2,-1 -2,-2 l 0,-8 c 0,-1 1,-2 2,-2 l 2,0 0,-2 c -2.24073,0 -4.26521,0.3305 -6,1 l 0,17 z"
       id="path3757-5-2"
       inkscape:connector-curvature="0"
       sodipodi:nodetypes="ccsccsccccc"
       inkscape:export-filename="/home/asilva/Outros/pfe/Game_data/Graphics/Mouse_icon_3.png"
       inkscape:export-xdpi="90"
       inkscape:export-ydpi="90" />
    <path
       style="fill:#808080;fill-opacity:1;stroke:none"
       d="m 104,1042.3622 21,0 0,8 -21,0 z"
       id="path3777-4-8"
       inkscape:connector-curvature="0"
       sodipodi:nodetypes="ccccc"
       inkscape:export-filename="/home/asilva/Outros/pfe/Game_data/Graphics/Mouse_icon_3.png"
       inkscape:export-xdpi="90"
       inkscape:export-ydpi="90" />
    <path
       style="fill:#ffffff;fill-opacity:1;stroke:none"
       d="m 108,1027.3622 1,-1 4,0 1,1 0,6 -1,1 -4,0 -1,-1 z"
       id="path3806-5-8"
       inkscape:connector-curvature="0"
       sodipodi:nodetypes="ccccccccc"
       inkscape:export-filename="/home/asilva/Outros/pfe/Game_data/Graphics/Mouse_icon_3.png"
       inkscape:export-xdpi="90"
       inkscape:export-ydpi="90" />
    <path
       style="fill:#ffffff;fill-opacity:1;stroke:#000000;stroke-width:2;stroke-linecap:butt;stroke-linejoin:miter;stroke-miterlimit:4;stroke-opacity:1;stroke-dasharray:none"
       d="m 113,1048.3622 3,3 7,-8 7,8 3,-3 -10,-13 z"
       id="path3838"
       inkscape:connector-curvature="0"
       sodipodi:nodetypes="ccccccc" />
    <path
       style="fill:#000000;fill-opacity:1;stroke:none"
       d="m 136,1052.3622 0.0165,-30.3867 c 2.49149,-1.3575 4.75313,-1.5904 8.98353,-1.6133 12,0 16,4 16,16 l 0,16 z"
       id="path2987-4-5-2-0"
       inkscape:connector-curvature="0"
       sodipodi:nodetypes="cccccc"
       inkscape:export-filename="/home/asilva/Outros/pfe/Game_data/Graphics/Mouse_icon_3.png"
       inkscape:export-xdpi="90"
       inkscape:export-ydpi="90" />
    <path
       style="fill:#303030;fill-opacity:1;stroke:none"
       d="m 138,1043.3622 0,-19 6,-2 2,0 8,3 5,15 0,2 0,1 z"
       id="path3036-64-1"
       inkscape:connector-curvature="0"
       sodipodi:nodetypes="ccccccccc" />
    <path
       style="fill:#808080;fill-opacity:1;stroke:none"
       d="m 146,1040.3622 0,-4 2,0 c 1,0 2,-1 2,-2 l 0,-8 c 0,-1 -1,-2 -2,-2 l -2,0 0,-2 c 10,0 13,4 13,14 l 0,4 z"
       id="path2987-34-7-6"
       inkscape:connector-curvature="0"
       sodipodi:nodetypes="ccsccsccccc"
       inkscape:export-filename="/home/asilva/Outros/pfe/Game_data/Graphics/Mouse_icon_3.png"
       inkscape:export-xdpi="90"
       inkscape:export-ydpi="90" />
    <path
       style="fill:#808080;fill-opacity:1;stroke:none"
       d="m 144,1040.3622 0,-4 -2,0 c -1,0 -2,-1 -2,-2 l 0,-8 c 0,-1 1,-2 2,-2 l 2,0 0,-2 c -2.24073,0 -4.26521,0.3305 -6,1 l 0,17 z"
       id="path3757-5-2-4"
       inkscape:connector-curvature="0"
       sodipodi:nodetypes="ccsccsccccc"
       inkscape:export-filename="/home/asilva/Outros/pfe/Game_data/Graphics/Mouse_icon_3.png"
       inkscape:export-xdpi="90"
       inkscape:export-ydpi="90" />
    <path
       style="fill:#808080;fill-opacity:1;stroke:none"
       d="m 138,1042.3622 21,0 0,8 -21,0 z"
       id="path3777-4-8-0"
       inkscape:connector-curvature="0"
       sodipodi:nodetypes="ccccc"
       inkscape:export-filename="/home/asilva/Outros/pfe/Game_data/Graphics/Mouse_icon_3.png"
       inkscape:export-xdpi="90"
       inkscape:export-ydpi="90" />
    <path
       style="fill:#ffffff;fill-opacity:1;stroke:none"
       d="m 142,1027.3622 1,-1 4,0 1,1 0,6 -1,1 -4,0 -1,-1 z"
       id="path3806-5-8-2"
       inkscape:connector-curvature="0"
       sodipodi:nodetypes="ccccccccc"
       inkscape:export-filename="/home/asilva/Outros/pfe/Game_data/Graphics/Mouse_icon_3.png"
       inkscape:export-xdpi="90"
       inkscape:export-ydpi="90" />
    <path
       style="fill:#ffffff;fill-opacity:1;stroke:#000000;stroke-width:2;stroke-linecap:butt;stroke-linejoin:miter;stroke-miterlimit:4;stroke-opacity:1;stroke-dasharray:none"
       d="m 147,1038.3622 3,-3 7,8 7,-8 3,3 -10,13 z"
       id="path3838-6"
       inkscape:connector-curvature="0"
       sodipodi:nodetypes="ccccccc" />
  </g>
</svg>
