<?xml version="1.0" encoding="UTF-8" standalone="no"?>
<!-- Created with Inkscape (http://www.inkscape.org/) -->

<svg
   xmlns:dc="http://purl.org/dc/elements/1.1/"
   xmlns:cc="http://creativecommons.org/ns#"
   xmlns:rdf="http://www.w3.org/1999/02/22-rdf-syntax-ns#"
   xmlns:svg="http://www.w3.org/2000/svg"
   xmlns="http://www.w3.org/2000/svg"
   xmlns:xlink="http://www.w3.org/1999/xlink"
   xmlns:sodipodi="http://sodipodi.sourceforge.net/DTD/sodipodi-0.dtd"
   xmlns:inkscape="http://www.inkscape.org/namespaces/inkscape"
   width="210mm"
   height="297mm"
   viewBox="0 0 744.09448819 1052.3622047"
   id="svg5829"
   version="1.1"
   inkscape:version="0.91 r13725"
   sodipodi:docname="Effects.svg">
  <defs
     id="defs5831">
    <linearGradient
       inkscape:collect="always"
       id="linearGradient4281">
      <stop
         style="stop-color:#606060;stop-opacity:1"
         offset="0"
         id="stop4283" />
      <stop
         style="stop-color:#303030;stop-opacity:1"
         offset="1"
         id="stop4285" />
    </linearGradient>
    <marker
       inkscape:stockid="Arrow2Lstart"
       orient="auto"
       refY="0.0"
       refX="0.0"
       id="Arrow2Lstart"
       style="overflow:visible"
       inkscape:isstock="true">
      <path
         id="path6406"
         style="fill-rule:evenodd;stroke-width:0.625;stroke-linejoin:round;stroke:#ffffff;stroke-opacity:1;fill:#ffffff;fill-opacity:1"
         d="M 8.7185878,4.0337352 L -2.2072895,0.016013256 L 8.7185884,-4.0017078 C 6.9730900,-1.6296469 6.9831476,1.6157441 8.7185878,4.0337352 z "
         transform="scale(1.1) translate(1,0)" />
    </marker>
    <filter
       inkscape:collect="always"
       style="color-interpolation-filters:sRGB"
       id="filter4196"
       x="-0.091862069"
       width="1.1837241"
       y="-0.333"
       height="1.666">
      <feGaussianBlur
         inkscape:collect="always"
         stdDeviation="1.11"
         id="feGaussianBlur4198" />
    </filter>
    <filter
       inkscape:collect="always"
       style="color-interpolation-filters:sRGB"
       id="filter4200"
       x="-0.0984"
       width="1.1968"
       y="-0.26836364"
       height="1.5367273">
      <feGaussianBlur
         inkscape:collect="always"
         stdDeviation="1.23"
         id="feGaussianBlur4202" />
    </filter>
    <filter
       inkscape:collect="always"
       style="color-interpolation-filters:sRGB"
       id="filter4240"
       x="-0.19905882"
       width="1.3981176"
       y="-0.1128"
       height="1.2256">
      <feGaussianBlur
         inkscape:collect="always"
         stdDeviation="1.41"
         id="feGaussianBlur4242" />
    </filter>
    <filter
       inkscape:collect="always"
       style="color-interpolation-filters:sRGB"
       id="filter4457"
       x="-0.1008"
       width="1.2016"
       y="-0.252"
       height="1.504">
      <feGaussianBlur
         inkscape:collect="always"
         stdDeviation="1.26"
         id="feGaussianBlur4459" />
    </filter>
    <filter
       inkscape:collect="always"
       style="color-interpolation-filters:sRGB"
       id="filter4461"
       x="-0.0984"
       width="1.1968"
       y="-0.26836364"
       height="1.5367273">
      <feGaussianBlur
         inkscape:collect="always"
         stdDeviation="1.23"
         id="feGaussianBlur4463" />
    </filter>
    <filter
       inkscape:collect="always"
       style="color-interpolation-filters:sRGB"
       id="filter4465"
       x="-0.17018182"
       width="1.3403636"
       y="-0.1248"
       height="1.2496">
      <feGaussianBlur
         inkscape:collect="always"
         stdDeviation="1.56"
         id="feGaussianBlur4467" />
    </filter>
    <filter
       inkscape:collect="always"
       style="color-interpolation-filters:sRGB"
       id="filter4469"
       x="-0.1008"
       width="1.2016"
       y="-0.252"
       height="1.504">
      <feGaussianBlur
         inkscape:collect="always"
         stdDeviation="1.26"
         id="feGaussianBlur4471" />
    </filter>
    <filter
       inkscape:collect="always"
       style="color-interpolation-filters:sRGB"
       id="filter4473"
       x="-0.0984"
       width="1.1968"
       y="-0.26836364"
       height="1.5367273">
      <feGaussianBlur
         inkscape:collect="always"
         stdDeviation="1.23"
         id="feGaussianBlur4475" />
    </filter>
    <filter
       inkscape:collect="always"
       style="color-interpolation-filters:sRGB"
       id="filter4477"
       x="-0.18568421"
       width="1.3713684"
       y="-0.1176"
       height="1.2352">
      <feGaussianBlur
         inkscape:collect="always"
         stdDeviation="1.47"
         id="feGaussianBlur4479" />
    </filter>
    <filter
       inkscape:collect="always"
       style="color-interpolation-filters:sRGB"
       id="filter4485"
       x="-0.0936"
       width="1.1872"
       y="-0.312"
       height="1.624">
      <feGaussianBlur
         inkscape:collect="always"
         stdDeviation="1.17"
         id="feGaussianBlur4487" />
    </filter>
    <filter
       inkscape:collect="always"
       style="color-interpolation-filters:sRGB"
       id="filter4489"
       x="-0.17485714"
       width="1.3497143"
       y="-0.1224"
       height="1.2448">
      <feGaussianBlur
         inkscape:collect="always"
         stdDeviation="1.53"
         id="feGaussianBlur4491" />
    </filter>
    <filter
       inkscape:collect="always"
       style="color-interpolation-filters:sRGB"
       id="filter4497"
       x="-0.096"
       width="1.192"
       y="-0.288"
       height="1.576">
      <feGaussianBlur
         inkscape:collect="always"
         stdDeviation="1.2"
         id="feGaussianBlur4499" />
    </filter>
    <radialGradient
       inkscape:collect="always"
       xlink:href="#linearGradient4216"
       id="radialGradient4242"
       gradientUnits="userSpaceOnUse"
       gradientTransform="translate(13.22339,16.63224)"
       cx="11"
       cy="995.36218"
       fx="11"
       fy="995.36218"
       r="7" />
    <linearGradient
       inkscape:collect="always"
       id="linearGradient4216">
      <stop
         style="stop-color:#cb2bac;stop-opacity:1"
         offset="0"
         id="stop4218" />
      <stop
         style="stop-color:#881172;stop-opacity:1"
         offset="1"
         id="stop4220" />
    </linearGradient>
    <radialGradient
       inkscape:collect="always"
       xlink:href="#linearGradient4216"
       id="radialGradient4262"
       gradientUnits="userSpaceOnUse"
       gradientTransform="translate(13.22339,16.63224)"
       cx="11"
       cy="995.36218"
       fx="11"
       fy="995.36218"
       r="7" />
    <radialGradient
       inkscape:collect="always"
       xlink:href="#linearGradient4216"
       id="radialGradient4270"
       gradientUnits="userSpaceOnUse"
       gradientTransform="translate(13.22339,16.63224)"
       cx="11"
       cy="995.36218"
       fx="11"
       fy="995.36218"
       r="7" />
    <radialGradient
       inkscape:collect="always"
       xlink:href="#linearGradient4216"
       id="radialGradient4278"
       gradientUnits="userSpaceOnUse"
       gradientTransform="translate(13.22339,16.63224)"
       cx="11"
       cy="995.36218"
       fx="11"
       fy="995.36218"
       r="7" />
    <radialGradient
       inkscape:collect="always"
       xlink:href="#linearGradient4216"
       id="radialGradient4247"
       gradientUnits="userSpaceOnUse"
       gradientTransform="translate(13.22339,16.63224)"
       cx="11"
       cy="995.36218"
       fx="11"
       fy="995.36218"
       r="7" />
    <radialGradient
       inkscape:collect="always"
       xlink:href="#linearGradient4216"
       id="radialGradient4249"
       gradientUnits="userSpaceOnUse"
       gradientTransform="translate(13.22339,16.63224)"
       cx="11"
       cy="995.36218"
       fx="11"
       fy="995.36218"
       r="7" />
    <radialGradient
       inkscape:collect="always"
       xlink:href="#linearGradient4216"
       id="radialGradient4251"
       gradientUnits="userSpaceOnUse"
       gradientTransform="translate(13.22339,16.63224)"
       cx="11"
       cy="995.36218"
       fx="11"
       fy="995.36218"
       r="7" />
    <radialGradient
       inkscape:collect="always"
       xlink:href="#linearGradient4216"
       id="radialGradient4253"
       gradientUnits="userSpaceOnUse"
       gradientTransform="translate(13.22339,16.63224)"
       cx="11"
       cy="995.36218"
       fx="11"
       fy="995.36218"
       r="7" />
    <radialGradient
       inkscape:collect="always"
       xlink:href="#linearGradient4281"
       id="radialGradient4289"
       cx="16.013214"
       cy="936.90424"
       fx="16.013214"
       fy="936.90424"
       r="14.887246"
       gradientTransform="matrix(1,0,0,0.94977099,0,46.059783)"
       gradientUnits="userSpaceOnUse" />
    <radialGradient
       inkscape:collect="always"
       xlink:href="#linearGradient4281"
       id="radialGradient4289-0"
       cx="16.013214"
       cy="936.90424"
       fx="16.013214"
       fy="936.90424"
       r="14.887246"
       gradientTransform="matrix(0,1,-0.94977099,0,1004.8577,919.89107)"
       gradientUnits="userSpaceOnUse" />
    <radialGradient
       inkscape:collect="always"
       xlink:href="#linearGradient4281"
       id="radialGradient4289-6"
       cx="16.013214"
       cy="936.90424"
       fx="16.013214"
       fy="936.90424"
       r="14.887246"
       gradientTransform="matrix(0,-1,0.94977099,0,-840.83126,951.91749)"
       gradientUnits="userSpaceOnUse" />
    <radialGradient
       inkscape:collect="always"
       xlink:href="#linearGradient4281"
       id="radialGradient4289-7"
       cx="16.013214"
       cy="936.90424"
       fx="16.013214"
       fy="936.90424"
       r="14.887246"
       gradientTransform="matrix(-1,0,0,-0.94977099,98.02643,1825.7488)"
       gradientUnits="userSpaceOnUse" />
    <filter
       inkscape:collect="always"
       style="color-interpolation-filters:sRGB"
       id="filter4876"
       x="-0.51480001"
       width="2.0295999"
       y="-0.51480001"
       height="2.0295999">
      <feGaussianBlur
         inkscape:collect="always"
         stdDeviation="0.429"
         id="feGaussianBlur4878" />
    </filter>
    <radialGradient
       inkscape:collect="always"
       xlink:href="#linearGradient4141"
       id="radialGradient4149-2"
       cx="4.016614"
       cy="1043.4883"
       fx="4.016614"
       fy="1043.4883"
       r="5"
       gradientTransform="matrix(1,3.1920227e-8,-4.3178155e-8,1.4010168,0.90004507,-416.58752)"
       gradientUnits="userSpaceOnUse" />
    <linearGradient
       inkscape:collect="always"
       id="linearGradient4141">
      <stop
         style="stop-color:#f4f1e0;stop-opacity:1"
         offset="0"
         id="stop4143" />
      <stop
         id="stop4153"
         offset="0.5"
         style="stop-color:#ffd894;stop-opacity:1" />
      <stop
         style="stop-color:#c04729;stop-opacity:1"
         offset="1"
         id="stop4145" />
    </linearGradient>
    <filter
       inkscape:collect="always"
       style="color-interpolation-filters:sRGB"
       id="filter4527-4"
       x="-0.090000004"
       width="1.1799999"
       y="-0.045000002"
       height="1.09">
      <feGaussianBlur
         inkscape:collect="always"
         stdDeviation="0.375"
         id="feGaussianBlur4529-18" />
    </filter>
    <radialGradient
       inkscape:collect="always"
       xlink:href="#linearGradient4141"
       id="radialGradient4149-90"
       cx="4.0166135"
       cy="1045.2759"
       fx="4.0166135"
       fy="1045.2759"
       r="5"
       gradientTransform="matrix(1,0,0,1.1999921,0.90000004,-206.9642)"
       gradientUnits="userSpaceOnUse" />
    <filter
       inkscape:collect="always"
       style="color-interpolation-filters:sRGB"
       id="filter4527-6"
       x="-0.090000004"
       width="1.1799999"
       y="-0.045000002"
       height="1.09">
      <feGaussianBlur
         inkscape:collect="always"
         stdDeviation="0.375"
         id="feGaussianBlur4529-13" />
    </filter>
    <radialGradient
       inkscape:collect="always"
       xlink:href="#linearGradient4141"
       id="radialGradient4149-7"
       cx="4.999999"
       cy="1045.2759"
       fx="4.999999"
       fy="1045.2759"
       r="5"
       gradientTransform="matrix(1,0,0,1.1999921,0.90000004,-206.9642)"
       gradientUnits="userSpaceOnUse" />
    <filter
       inkscape:collect="always"
       style="color-interpolation-filters:sRGB"
       id="filter4527-1"
       x="-0.090000004"
       width="1.1799999"
       y="-0.045000002"
       height="1.09">
      <feGaussianBlur
         inkscape:collect="always"
         stdDeviation="0.375"
         id="feGaussianBlur4529-6" />
    </filter>
    <radialGradient
       inkscape:collect="always"
       xlink:href="#linearGradient4141"
       id="radialGradient4149-9"
       cx="5.9832592"
       cy="1045.2759"
       fx="5.9832592"
       fy="1045.2759"
       r="5"
       gradientTransform="matrix(1,0,0,1.1999921,0.90000004,-206.9642)"
       gradientUnits="userSpaceOnUse" />
    <filter
       inkscape:collect="always"
       style="color-interpolation-filters:sRGB"
       id="filter4527-7"
       x="-0.090000004"
       width="1.1799999"
       y="-0.045000002"
       height="1.09">
      <feGaussianBlur
         inkscape:collect="always"
         stdDeviation="0.375"
         id="feGaussianBlur4529-1" />
    </filter>
    <radialGradient
       inkscape:collect="always"
       xlink:href="#linearGradient4141"
       id="radialGradient4149"
       cx="5"
       cy="1044.5289"
       fx="5"
       fy="1044.5289"
       r="5"
       gradientTransform="matrix(1,0,0,1.1999921,0.90000004,-206.9642)"
       gradientUnits="userSpaceOnUse" />
    <filter
       inkscape:collect="always"
       style="color-interpolation-filters:sRGB"
       id="filter4527"
       x="-0.090000004"
       width="1.1799999"
       y="-0.045000002"
       height="1.09">
      <feGaussianBlur
         inkscape:collect="always"
         stdDeviation="0.375"
         id="feGaussianBlur4529" />
    </filter>
  </defs>
  <sodipodi:namedview
     id="base"
     pagecolor="#ffffff"
     bordercolor="#666666"
     borderopacity="1.0"
     inkscape:pageopacity="0.0"
     inkscape:pageshadow="2"
     inkscape:zoom="2.8284271"
     inkscape:cx="57.096821"
     inkscape:cy="153.36476"
     inkscape:document-units="px"
     inkscape:current-layer="layer2"
     showgrid="true"
     inkscape:snap-bbox="true"
     inkscape:object-paths="true"
     inkscape:snap-intersection-paths="true"
     inkscape:snap-smooth-nodes="true"
     inkscape:object-nodes="true"
     inkscape:window-width="1872"
     inkscape:window-height="1055"
     inkscape:window-x="48"
     inkscape:window-y="0"
     inkscape:window-maximized="1"
     inkscape:bbox-paths="true"
     inkscape:bbox-nodes="true">
    <inkscape:grid
       type="xygrid"
       id="grid6377" />
  </sodipodi:namedview>
  <metadata
     id="metadata5834">
    <rdf:RDF>
      <cc:Work
         rdf:about="">
        <dc:format>image/svg+xml</dc:format>
        <dc:type
           rdf:resource="http://purl.org/dc/dcmitype/StillImage" />
        <dc:title />
      </cc:Work>
    </rdf:RDF>
  </metadata>
  <g
     inkscape:groupmode="layer"
     id="layer2"
     inkscape:label="Grid"
     style="display:inline">
    <rect
       style="opacity:1;fill:#008000;fill-opacity:1;stroke:none;stroke-opacity:1"
       id="rect6380"
       width="32"
       height="32"
       x="0"
       y="1020.3622" />
    <rect
       style="opacity:1;fill:#008000;fill-opacity:1;stroke:none;stroke-opacity:1"
       id="rect6380-9"
       width="32"
       height="32"
       x="33"
       y="1020.3622" />
    <rect
       style="opacity:1;fill:#008000;fill-opacity:1;stroke:none;stroke-opacity:1"
       id="rect6380-9-3"
       width="32"
       height="32"
       x="66"
       y="1020.3622" />
    <rect
       style="opacity:1;fill:#008000;fill-opacity:1;stroke:none;stroke-opacity:1"
       id="rect6380-9-3-5"
       width="32"
       height="32"
       x="99"
       y="1020.3622" />
    <rect
       style="display:inline;opacity:1;fill:#008000;fill-opacity:1;stroke:none;stroke-opacity:1"
       id="rect6380-7"
       width="32"
       height="32"
       x="0"
       y="970.36218" />
    <rect
       style="display:inline;opacity:1;fill:#008000;fill-opacity:1;stroke:none;stroke-opacity:1"
       id="rect6380-7-1"
       width="32"
       height="32"
       x="33"
       y="970.36218" />
    <rect
       style="display:inline;opacity:1;fill:#008000;fill-opacity:1;stroke:none;stroke-opacity:1"
       id="rect6380-7-8"
       width="32"
       height="32"
       x="66"
       y="970.36218" />
    <rect
       style="display:inline;opacity:1;fill:#008000;fill-opacity:1;stroke:none;stroke-opacity:1"
       id="rect6380-7-3"
       width="32"
       height="32"
       x="99"
       y="970.36218" />
    <rect
       style="display:inline;opacity:1;fill:#008000;fill-opacity:1;stroke:none;stroke-opacity:1"
       id="rect6380-3"
       width="32"
       height="32"
       x="0"
       y="920.36218" />
    <rect
       style="display:inline;opacity:1;fill:#008000;fill-opacity:1;stroke:none;stroke-opacity:1"
       id="rect6380-3-1"
       width="32"
       height="32"
       x="33"
       y="920.36218" />
    <rect
       style="display:inline;opacity:1;fill:#008000;fill-opacity:1;stroke:none;stroke-opacity:1"
       id="rect6380-3-3"
       width="32"
       height="32"
       x="66"
       y="920.36218" />
    <rect
       style="display:inline;opacity:1;fill:#008000;fill-opacity:1;stroke:none;stroke-opacity:1"
       id="rect6380-3-6"
       width="32"
       height="32"
       x="99"
       y="920.36218" />
    <path
       style="opacity:0.75;fill:url(#radialGradient4149);fill-opacity:1;stroke:none;stroke-opacity:1;filter:url(#filter4527)"
       d="m 10.9,1044.9622 c 0,3.5 -2,6.5 -5,6.5 -3,0 -4.99999996,-3 -4.99999996,-6.5 0,-3.5 4.21756176,-10.7671 4.99999996,-13.5 1,3 5,9.9101 5,13.5 z"
       id="path4138"
       inkscape:connector-curvature="0"
       sodipodi:nodetypes="ssscs"
       transform="matrix(2.0339161,0,0,1.9985288,-3.3353952e-8,-1201.0943)" />
    <path
       style="opacity:0.75;fill:url(#radialGradient4149-9);fill-opacity:1;stroke:none;stroke-opacity:1;filter:url(#filter4527-7)"
       d="m 10.9,1044.9622 c -0.129895,3.4975 -2,6.5 -5,6.5 -3,0 -5.18218067,-3.0049 -4.99999996,-6.5 0.16319836,-3.1309 6.97613066,-8.0906 6.96658196,-12.6147 1.9077692,2.5381 3.169313,8.9556 3.033418,12.6147 z"
       id="path4138-3"
       inkscape:connector-curvature="0"
       sodipodi:nodetypes="ssscs"
       transform="matrix(2.0339161,0,0,1.9985288,25.999948,-1201.0943)" />
    <path
       style="opacity:0.75;fill:url(#radialGradient4149-7);fill-opacity:1;stroke:none;stroke-opacity:1;filter:url(#filter4527-1)"
       d="m 10.9,1044.9622 c 0,3.5 -2,6.5 -5,6.5 -3,0 -4.99999996,-3 -4.99999996,-6.5 0,-3.5 4.21756076,-6.8796 4.99999896,-9.6125 1,3 5.000001,6.0226 5.000001,9.6125 z"
       id="path4138-6"
       inkscape:connector-curvature="0"
       sodipodi:nodetypes="ssscs"
       transform="matrix(2.0338925,0,0,1.9985298,51.999908,-1201.0953)" />
    <path
       style="opacity:0.75;fill:url(#radialGradient4149-90);fill-opacity:1;stroke:none;stroke-opacity:1;filter:url(#filter4527-6)"
       d="m 10.9,1044.9622 c 0,3.5 -2,6.5 -5,6.5 -3,0 -4.99999996,-3 -4.99999996,-6.5 0,-3.5 1.06664546,-7.611 2.04996816,-10.6132 C 3.933291,1039.3527 10.9,1041.3723 10.9,1044.9622 Z"
       id="path4138-4"
       inkscape:connector-curvature="0"
       sodipodi:nodetypes="ssscs"
       transform="matrix(2.0339161,0,0,1.9985288,77.999844,-1201.0943)" />
    <path
       style="opacity:0.75;fill:url(#radialGradient4149-2);fill-opacity:1;stroke:none;stroke-opacity:1;filter:url(#filter4527-4)"
       d="m 10.9,1044.9622 c 0,3.5 -2,6.5 -5,6.5 -3,0 -4.99999996,-3 -4.99999996,-6.5 0,-3.5 1.06664546,-9.6125 2.04996816,-16.6176 C 3.933291,1035.3497 10.9,1041.3723 10.9,1044.9622 Z"
       id="path4138-9"
       inkscape:connector-curvature="0"
       sodipodi:nodetypes="ssscs"
       transform="matrix(2.0339161,0,0,1.9985288,103.99979,-1201.0943)" />
    <circle
       style="opacity:0.75;fill:#c04729;fill-opacity:1;stroke:none;stroke-opacity:1;filter:url(#filter4876)"
       id="path4678"
       cx="3"
       cy="874.22192"
       r="1" />
    <circle
       r="1"
       cy="865.22192"
       cx="5"
       id="circle4891"
       style="opacity:0.75;fill:#c04729;fill-opacity:1;stroke:none;stroke-opacity:1;filter:url(#filter4876)" />
    <circle
       style="opacity:0.75;fill:#c04729;fill-opacity:1;stroke:none;stroke-opacity:1;filter:url(#filter4876)"
       id="circle4893"
       cx="20"
       cy="870.22192"
       r="1" />
    <circle
       r="1"
       cy="869.22192"
       cx="33"
       id="circle4895"
       style="opacity:0.75;fill:#c04729;fill-opacity:1;stroke:none;stroke-opacity:1;filter:url(#filter4876)" />
    <circle
       style="opacity:0.75;fill:#c04729;fill-opacity:1;stroke:none;stroke-opacity:1;filter:url(#filter4876)"
       id="circle4897"
       cx="37"
       cy="860.22192"
       r="1" />
    <circle
       r="1"
       cy="864.22192"
       cx="49"
       id="circle4899"
       style="opacity:0.75;fill:#c04729;fill-opacity:1;stroke:none;stroke-opacity:1;filter:url(#filter4876)" />
    <circle
       style="opacity:0.75;fill:#c04729;fill-opacity:1;stroke:none;stroke-opacity:1;filter:url(#filter4876)"
       id="circle4901"
       cx="59"
       cy="1013.3622"
       r="1"
       transform="matrix(0.5,0,0,0.5,29,356.04086)" />
    <circle
       transform="matrix(0.5,0,0,0.5,41,353.54088)"
       r="1"
       cy="1013.3622"
       cx="59"
       id="circle4903"
       style="opacity:0.75;fill:#c04729;fill-opacity:1;stroke:none;stroke-opacity:1;filter:url(#filter4876)" />
    <circle
       style="opacity:0.75;fill:#c04729;fill-opacity:1;stroke:none;stroke-opacity:1;filter:url(#filter4876)"
       id="circle4905"
       cx="59"
       cy="1013.3622"
       r="1"
       transform="matrix(0.5,0,0,0.5,34,350.54088)" />
    <circle
       transform="matrix(0.5,0,0,0.5,51,368.54088)"
       r="1"
       cy="1013.3622"
       cx="59"
       id="circle4907"
       style="opacity:0.75;fill:#c04729;fill-opacity:1;stroke:none;stroke-opacity:1;filter:url(#filter4876)" />
    <circle
       style="opacity:0.75;fill:#c04729;fill-opacity:1;stroke:none;stroke-opacity:1;filter:url(#filter4876)"
       id="circle4909"
       cx="59"
       cy="1013.3622"
       r="1"
       transform="matrix(0.5,0,0,0.5,67.000001,372.54088)" />
    <circle
       transform="matrix(0.5,0,0,0.5,57.000001,362.54088)"
       r="1"
       cy="1013.3622"
       cx="59"
       id="circle4911"
       style="opacity:0.75;fill:#c04729;fill-opacity:1;stroke:none;stroke-opacity:1;filter:url(#filter4876)" />
    <circle
       style="opacity:0.75;fill:#c04729;fill-opacity:1;stroke:none;stroke-opacity:1;filter:url(#filter4876)"
       id="circle4913"
       cx="59"
       cy="1013.3622"
       r="1"
       transform="matrix(0.5,0,0,0.5,77.000001,361.54088)" />
    <circle
       transform="matrix(0.5,0,0,0.5,85.000001,354.54088)"
       r="1"
       cy="1013.3622"
       cx="59"
       id="circle4915"
       style="opacity:0.75;fill:#c04729;fill-opacity:1;stroke:none;stroke-opacity:1;filter:url(#filter4876)" />
    <circle
       style="opacity:0.75;fill:#c04729;fill-opacity:1;stroke:none;stroke-opacity:1;filter:url(#filter4876)"
       id="circle4917"
       cx="59"
       cy="1013.3622"
       r="1"
       transform="matrix(0.5,0,0,0.5,91.500001,364.04088)" />
  </g>
  <g
     inkscape:label="Graphics"
     inkscape:groupmode="layer"
     id="layer1"
     style="display:inline">
    <path
       sodipodi:type="star"
       style="display:inline;opacity:0.2;fill:#cb2bac;fill-opacity:1;stroke:none;stroke-width:1.5;stroke-linecap:round;stroke-miterlimit:4;stroke-dasharray:none;stroke-opacity:1"
       id="path4226-9-6"
       sodipodi:sides="8"
       sodipodi:cx="24.223391"
       sodipodi:cy="1011.9945"
       sodipodi:r1="7"
       sodipodi:r2="5.8099999"
       sodipodi:arg1="0"
       sodipodi:arg2="0.39269908"
       inkscape:flatsided="false"
       inkscape:rounded="0.37"
       inkscape:randomized="0"
       d="m 31.223391,1011.9945 c 0,1.0205 -1.241717,1.2805 -1.63226,2.2234 -0.390544,0.9429 0.303637,2.0047 -0.417993,2.7264 -0.72163,0.7216 -1.783502,0.027 -2.726357,0.4179 -0.942855,0.3906 -1.202852,1.6323 -2.22339,1.6323 -1.020539,0 -1.280536,-1.2417 -2.223391,-1.6323 -0.942855,-0.3905 -2.004727,0.3037 -2.726357,-0.4179 -0.72163,-0.7217 -0.02745,-1.7835 -0.417992,-2.7264 -0.390544,-0.9429 -1.63226,-1.2029 -1.63226,-2.2234 0,-1.0205 1.241716,-1.2805 1.63226,-2.2234 0.390543,-0.9428 -0.303638,-2.0047 0.417992,-2.7263 0.72163,-0.7217 1.783502,-0.028 2.726357,-0.418 0.942855,-0.3906 1.202852,-1.6323 2.223391,-1.6323 1.020538,0 1.280535,1.2417 2.22339,1.6323 0.942855,0.3905 2.004727,-0.3037 2.726357,0.418 0.72163,0.7216 0.02745,1.7835 0.417993,2.7263 0.390543,0.9429 1.63226,1.2029 1.63226,2.2234 z"
       transform="matrix(1.8731586,-1.2164434,1.2045603,1.8548603,-1149.4168,-861.15144)" />
    <path
       sodipodi:type="star"
       style="display:inline;opacity:0.2;fill:#cb2bac;fill-opacity:1;stroke:none;stroke-width:1.5;stroke-linecap:round;stroke-miterlimit:4;stroke-dasharray:none;stroke-opacity:1"
       id="path4226-9-5"
       sodipodi:sides="8"
       sodipodi:cx="24.223391"
       sodipodi:cy="1011.9945"
       sodipodi:r1="7"
       sodipodi:r2="5.8099999"
       sodipodi:arg1="0"
       sodipodi:arg2="0.39269908"
       inkscape:flatsided="false"
       inkscape:rounded="0.37"
       inkscape:randomized="0"
       d="m 31.223391,1011.9945 c 0,1.0205 -1.241717,1.2805 -1.63226,2.2234 -0.390544,0.9429 0.303637,2.0047 -0.417993,2.7264 -0.72163,0.7216 -1.783502,0.027 -2.726357,0.4179 -0.942855,0.3906 -1.202852,1.6323 -2.22339,1.6323 -1.020539,0 -1.280536,-1.2417 -2.223391,-1.6323 -0.942855,-0.3905 -2.004727,0.3037 -2.726357,-0.4179 -0.72163,-0.7217 -0.02745,-1.7835 -0.417992,-2.7264 -0.390544,-0.9429 -1.63226,-1.2029 -1.63226,-2.2234 0,-1.0205 1.241716,-1.2805 1.63226,-2.2234 0.390543,-0.9428 -0.303638,-2.0047 0.417992,-2.7263 0.72163,-0.7217 1.783502,-0.028 2.726357,-0.418 0.942855,-0.3906 1.202852,-1.6323 2.223391,-1.6323 1.020538,0 1.280535,1.2417 2.22339,1.6323 0.942855,0.3905 2.004727,-0.3037 2.726357,0.418 0.72163,0.7216 0.02745,1.7835 0.417993,2.7263 0.390543,0.9429 1.63226,1.2029 1.63226,2.2234 z"
       transform="matrix(2.1924502,-0.42616914,0.42200602,2.1710327,-431.21044,-1200.2594)" />
    <path
       sodipodi:type="star"
       style="display:inline;opacity:0.2;fill:#cb2bac;fill-opacity:1;stroke:none;stroke-width:1.5;stroke-linecap:round;stroke-miterlimit:4;stroke-dasharray:none;stroke-opacity:1"
       id="path4226-9-7"
       sodipodi:sides="8"
       sodipodi:cx="24.223391"
       sodipodi:cy="1011.9945"
       sodipodi:r1="7"
       sodipodi:r2="5.8099999"
       sodipodi:arg1="0"
       sodipodi:arg2="0.39269908"
       inkscape:flatsided="false"
       inkscape:rounded="0.37"
       inkscape:randomized="0"
       d="m 31.223391,1011.9945 c 0,1.0205 -1.241717,1.2805 -1.63226,2.2234 -0.390544,0.9429 0.303637,2.0047 -0.417993,2.7264 -0.72163,0.7216 -1.783502,0.027 -2.726357,0.4179 -0.942855,0.3906 -1.202852,1.6323 -2.22339,1.6323 -1.020539,0 -1.280536,-1.2417 -2.223391,-1.6323 -0.942855,-0.3905 -2.004727,0.3037 -2.726357,-0.4179 -0.72163,-0.7217 -0.02745,-1.7835 -0.417992,-2.7264 -0.390544,-0.9429 -1.63226,-1.2029 -1.63226,-2.2234 0,-1.0205 1.241716,-1.2805 1.63226,-2.2234 0.390543,-0.9428 -0.303638,-2.0047 0.417992,-2.7263 0.72163,-0.7217 1.783502,-0.028 2.726357,-0.418 0.942855,-0.3906 1.202852,-1.6323 2.223391,-1.6323 1.020538,0 1.280535,1.2417 2.22339,1.6323 0.942855,0.3905 2.004727,-0.3037 2.726357,0.418 0.72163,0.7216 0.02745,1.7835 0.417993,2.7263 0.390543,0.9429 1.63226,1.2029 1.63226,2.2234 z"
       transform="matrix(2.0708518,-0.83667843,0.82850515,2.0506222,-806.6398,-1068.4607)" />
    <path
       sodipodi:type="star"
       style="display:inline;opacity:0.2;fill:#cb2bac;fill-opacity:1;stroke:none;stroke-width:1.5;stroke-linecap:round;stroke-miterlimit:4;stroke-dasharray:none;stroke-opacity:1"
       id="path4226-9"
       sodipodi:sides="8"
       sodipodi:cx="24.223391"
       sodipodi:cy="1011.9945"
       sodipodi:r1="7"
       sodipodi:r2="5.8099999"
       sodipodi:arg1="0"
       sodipodi:arg2="0.39269908"
       inkscape:flatsided="false"
       inkscape:rounded="0.37"
       inkscape:randomized="0"
       d="m 31.223391,1011.9945 c 0,1.0205 -1.241717,1.2805 -1.63226,2.2234 -0.390544,0.9429 0.303637,2.0047 -0.417993,2.7264 -0.72163,0.7216 -1.783502,0.027 -2.726357,0.4179 -0.942855,0.3906 -1.202852,1.6323 -2.22339,1.6323 -1.020539,0 -1.280536,-1.2417 -2.223391,-1.6323 -0.942855,-0.3905 -2.004727,0.3037 -2.726357,-0.4179 -0.72163,-0.7217 -0.02745,-1.7835 -0.417992,-2.7264 -0.390544,-0.9429 -1.63226,-1.2029 -1.63226,-2.2234 0,-1.0205 1.241716,-1.2805 1.63226,-2.2234 0.390543,-0.9428 -0.303638,-2.0047 0.417992,-2.7263 0.72163,-0.7217 1.783502,-0.028 2.726357,-0.418 0.942855,-0.3906 1.202852,-1.6323 2.223391,-1.6323 1.020538,0 1.280535,1.2417 2.22339,1.6323 0.942855,0.3905 2.004727,-0.3037 2.726357,0.418 0.72163,0.7216 0.02745,1.7835 0.417993,2.7263 0.390543,0.9429 1.63226,1.2029 1.63226,2.2234 z"
       transform="matrix(2.2334856,0,0,2.2116673,-38.068505,-1251.7046)" />
    <use
       x="0"
       y="0"
       xlink:href="#path6382-0-07"
       id="use4431"
       style="filter:url(#filter4497)"
       width="100%"
       height="100%" />
    <use
       x="0"
       y="0"
       xlink:href="#path6382-0"
       id="use4427"
       style="filter:url(#filter4485)"
       width="100%"
       height="100%" />
    <use
       x="0"
       y="0"
       xlink:href="#path6382-0-7"
       id="use4366"
       style="filter:url(#filter4473)"
       width="100%"
       height="100%" />
    <use
       x="0"
       y="0"
       xlink:href="#path6382-0-3"
       id="use4364"
       style="filter:url(#filter4469)"
       width="100%"
       height="100%" />
    <use
       x="0"
       y="0"
       xlink:href="#path6382-0-1"
       id="use4291"
       style="filter:url(#filter4457)"
       width="100%"
       height="100%" />
    <use
       x="0"
       y="0"
       xlink:href="#path6382-0-6"
       id="use4289"
       style="filter:url(#filter4461)"
       width="100%"
       height="100%" />
    <use
       x="0"
       y="0"
       xlink:href="#path6382-7"
       id="use4186"
       style="filter:url(#filter4200)"
       width="100%"
       height="100%" />
    <use
       x="0"
       y="0"
       xlink:href="#path6382"
       id="use6664"
       style="opacity:1;filter:url(#filter4196)"
       width="100%"
       height="100%" />
    <path
       style="fill:none;fill-rule:evenodd;stroke:#ffffff;stroke-width:1;stroke-linecap:round;stroke-linejoin:miter;stroke-miterlimit:4;stroke-dasharray:none;stroke-opacity:1"
       d="m 4,1047.3622 3,-1 6,-2 4,4 3,-7 2,2 4,0 0,5 2,1 3,-7"
       id="path6382"
       inkscape:connector-curvature="0"
       sodipodi:nodetypes="cccccccccc" />
    <path
       style="fill:none;fill-rule:evenodd;stroke:#ffffff;stroke-width:1;stroke-linecap:round;stroke-linejoin:miter;stroke-miterlimit:4;stroke-dasharray:none;stroke-opacity:1"
       d="m 1,1030.3622 2,2 3,-3 2,2 2,-7 6,0 0,3 5,1 2,4 1,-7 4,3"
       id="path6382-7"
       inkscape:connector-curvature="0"
       sodipodi:nodetypes="ccccccccccc" />
    <path
       style="fill:none;fill-rule:evenodd;stroke:#ffffff;stroke-width:1;stroke-linecap:round;stroke-linejoin:miter;stroke-miterlimit:4;stroke-dasharray:none;stroke-opacity:1"
       d="m 104,1047.3622 2,-3 5,0 5,-2 4,4 4,-5 3,9 3,-8"
       id="path6382-0"
       inkscape:connector-curvature="0"
       sodipodi:nodetypes="cccccccc" />
    <path
       style="fill:none;fill-rule:evenodd;stroke:#ffffff;stroke-width:1;stroke-linecap:round;stroke-linejoin:miter;stroke-miterlimit:4;stroke-dasharray:none;stroke-opacity:1"
       d="m 13,1021.3622 6,2 -8,4 -1,4 3,2 8,0 3,5 -6,2 -1,3 5,2 5,5 -5,1"
       id="path6382-0-9"
       inkscape:connector-curvature="0"
       sodipodi:nodetypes="cccccccccccc" />
    <use
       x="0"
       y="0"
       xlink:href="#path6382-0-9"
       id="use4234"
       style="filter:url(#filter4240)"
       width="100%"
       height="100%" />
    <path
       style="fill:none;fill-rule:evenodd;stroke:#ffffff;stroke-width:1;stroke-linecap:round;stroke-linejoin:miter;stroke-miterlimit:4;stroke-dasharray:none;stroke-opacity:1"
       d="m 38,1046.3622 3,-6 3,4 2,-4 4,10 1,-7 4,0 2,-4 3,2 1,4 3,-3"
       id="path6382-0-6"
       inkscape:connector-curvature="0"
       sodipodi:nodetypes="ccccccccccc" />
    <path
       style="fill:none;fill-rule:evenodd;stroke:#ffffff;stroke-width:1;stroke-linecap:round;stroke-linejoin:miter;stroke-miterlimit:4;stroke-dasharray:none;stroke-opacity:1"
       d="m 34,1030.3622 1,4 4,-5 3,0 2,-5 1,7 2,-3 1,7 5,-10 7,3"
       id="path6382-0-1"
       inkscape:connector-curvature="0"
       sodipodi:nodetypes="cccccccccc" />
    <path
       style="fill:none;fill-rule:evenodd;stroke:#ffffff;stroke-width:1;stroke-linecap:round;stroke-linejoin:miter;stroke-miterlimit:4;stroke-dasharray:none;stroke-opacity:1"
       d="m 46,1021.3622 9,1 -6,3 -10,1 5,4 -2,3 7,1 -4,4 6,2 3,4 7,5 -6,2"
       id="path6382-0-5"
       inkscape:connector-curvature="0"
       sodipodi:nodetypes="cccccccccccc" />
    <use
       x="0"
       y="0"
       xlink:href="#path6382-0-5"
       id="use4293"
       style="filter:url(#filter4465)"
       width="100%"
       height="100%" />
    <path
       style="fill:none;fill-rule:evenodd;stroke:#ffffff;stroke-width:1;stroke-linecap:round;stroke-linejoin:miter;stroke-miterlimit:4;stroke-dasharray:none;stroke-opacity:1"
       d="m 97,1042.3622 -2,-2 -2,3 -1,3 -2,-8 -4,-2 -2,5 0,4 -2,3 -2,-6 0,-4 -5,7 -4,1"
       id="path6382-0-3"
       inkscape:connector-curvature="0"
       sodipodi:nodetypes="ccccccccccccc" />
    <path
       style="fill:none;fill-rule:evenodd;stroke:#ffffff;stroke-width:1;stroke-linecap:round;stroke-linejoin:miter;stroke-miterlimit:4;stroke-dasharray:none;stroke-opacity:1"
       d="m 67,1030.3622 3,2 2,-5 2,6 2,0 2,-6 5,-3 2,3 2,6 2,-7 3,7 2,-6"
       id="path6382-0-7"
       inkscape:connector-curvature="0"
       sodipodi:nodetypes="cccccccccccc" />
    <path
       style="fill:none;fill-rule:evenodd;stroke:#ffffff;stroke-width:1;stroke-linecap:round;stroke-linejoin:miter;stroke-miterlimit:4;stroke-dasharray:none;stroke-opacity:1"
       d="m 79,1021.3622 -4,2 0,2 12,1 -13,5 12,1 0,4 7,4 -11,3 5,3 4,4 -3,1"
       id="path6382-0-0"
       inkscape:connector-curvature="0"
       sodipodi:nodetypes="cccccccccccc" />
    <use
       x="0"
       y="0"
       xlink:href="#path6382-0-0"
       id="use4368"
       style="filter:url(#filter4477)"
       width="100%"
       height="100%" />
    <path
       style="fill:none;fill-rule:evenodd;stroke:#ffffff;stroke-width:1;stroke-linecap:round;stroke-linejoin:miter;stroke-miterlimit:4;stroke-dasharray:none;stroke-opacity:1"
       d="m 112,1021.3622 -10,2 17,2 -3,5 7,2 -3,3 3,2 -8,2 5,2 -6,7 7,3"
       id="path6382-0-37"
       inkscape:connector-curvature="0"
       sodipodi:nodetypes="ccccccccccc" />
    <path
       style="fill:none;fill-rule:evenodd;stroke:#ffffff;stroke-width:1;stroke-linecap:round;stroke-linejoin:miter;stroke-miterlimit:4;stroke-dasharray:none;stroke-opacity:1"
       d="m 100,1030.3622 2,-4 3,2 2,-2 2,6 3,-3 2,3 1,-5 5,1 5,-2"
       id="path6382-0-07"
       inkscape:connector-curvature="0"
       sodipodi:nodetypes="cccccccccc" />
    <use
       x="0"
       y="0"
       xlink:href="#path6382-0-37"
       id="use4429"
       style="filter:url(#filter4489)"
       width="100%"
       height="100%" />
    <path
       sodipodi:type="star"
       style="display:inline;opacity:1;fill:url(#radialGradient4253);fill-opacity:1;stroke:none;stroke-width:1.5;stroke-linecap:round;stroke-miterlimit:4;stroke-dasharray:none;stroke-opacity:1"
       id="path4226"
       sodipodi:sides="8"
       sodipodi:cx="24.223391"
       sodipodi:cy="1011.9945"
       sodipodi:r1="7"
       sodipodi:r2="5.8099999"
       sodipodi:arg1="0"
       sodipodi:arg2="0.39269908"
       inkscape:flatsided="false"
       inkscape:rounded="0.37"
       inkscape:randomized="0"
       d="m 31.223391,1011.9945 c 0,1.0205 -1.241717,1.2805 -1.63226,2.2234 -0.390544,0.9429 0.303637,2.0047 -0.417993,2.7264 -0.72163,0.7216 -1.783502,0.027 -2.726357,0.4179 -0.942855,0.3906 -1.202852,1.6323 -2.22339,1.6323 -1.020539,0 -1.280536,-1.2417 -2.223391,-1.6323 -0.942855,-0.3905 -2.004727,0.3037 -2.726357,-0.4179 -0.72163,-0.7217 -0.02745,-1.7835 -0.417992,-2.7264 -0.390544,-0.9429 -1.63226,-1.2029 -1.63226,-2.2234 0,-1.0205 1.241716,-1.2805 1.63226,-2.2234 0.390543,-0.9428 -0.303638,-2.0047 0.417992,-2.7263 0.72163,-0.7217 1.783502,-0.028 2.726357,-0.418 0.942855,-0.3906 1.202852,-1.6323 2.223391,-1.6323 1.020538,0 1.280535,1.2417 2.22339,1.6323 0.942855,0.3905 2.004727,-0.3037 2.726357,0.418 0.72163,0.7216 0.02745,1.7835 0.417993,2.7263 0.390543,0.9429 1.63226,1.2029 1.63226,2.2234 z"
       transform="matrix(0.81684613,0,0,0.80886654,5.0293852,177.45198)" />
    <use
       style="display:inline"
       x="0"
       y="0"
       xlink:href="#path4226"
       id="use4244"
       transform="matrix(0.87928922,0,0,0.87928922,3.776348,101.75451)"
       width="100%"
       height="100%" />
    <use
       style="display:inline"
       x="0"
       y="0"
       xlink:href="#path4226"
       id="use4246"
       transform="matrix(1.3865327,0,0,1.3865327,-26.014431,-401.80588)"
       width="100%"
       height="100%" />
    <use
       style="display:inline"
       x="0"
       y="0"
       xlink:href="#path4226"
       id="use4248"
       transform="matrix(0.52428298,0,0,0.52428298,-7.309475,475.10857)"
       width="100%"
       height="100%" />
    <path
       sodipodi:type="star"
       style="display:inline;opacity:1;fill:url(#radialGradient4251);fill-opacity:1;stroke:none;stroke-width:1.5;stroke-linecap:round;stroke-miterlimit:4;stroke-dasharray:none;stroke-opacity:1"
       id="path4226-1"
       sodipodi:sides="8"
       sodipodi:cx="24.223391"
       sodipodi:cy="1011.9945"
       sodipodi:r1="7"
       sodipodi:r2="5.8099999"
       sodipodi:arg1="0"
       sodipodi:arg2="0.39269908"
       inkscape:flatsided="false"
       inkscape:rounded="0.37"
       inkscape:randomized="0"
       d="m 31.223391,1011.9945 c 0,1.0205 -1.241717,1.2805 -1.63226,2.2234 -0.390544,0.9429 0.303637,2.0047 -0.417993,2.7264 -0.72163,0.7216 -1.783502,0.027 -2.726357,0.4179 -0.942855,0.3906 -1.202852,1.6323 -2.22339,1.6323 -1.020539,0 -1.280536,-1.2417 -2.223391,-1.6323 -0.942855,-0.3905 -2.004727,0.3037 -2.726357,-0.4179 -0.72163,-0.7217 -0.02745,-1.7835 -0.417992,-2.7264 -0.390544,-0.9429 -1.63226,-1.2029 -1.63226,-2.2234 0,-1.0205 1.241716,-1.2805 1.63226,-2.2234 0.390543,-0.9428 -0.303638,-2.0047 0.417992,-2.7263 0.72163,-0.7217 1.783502,-0.028 2.726357,-0.418 0.942855,-0.3906 1.202852,-1.6323 2.223391,-1.6323 1.020538,0 1.280535,1.2417 2.22339,1.6323 0.942855,0.3905 2.004727,-0.3037 2.726357,0.418 0.72163,0.7216 0.02745,1.7835 0.417993,2.7263 0.390543,0.9429 1.63226,1.2029 1.63226,2.2234 z"
       transform="matrix(0.74493248,0,0,0.7376554,41.611486,245.81859)" />
    <use
       x="0"
       y="0"
       xlink:href="#path4226-1"
       id="use4428"
       transform="matrix(1.1576043,0,0,1.1576043,-13.687163,-172.25231)"
       width="100%"
       height="100%" />
    <use
       x="0"
       y="0"
       xlink:href="#path4226-1"
       id="use4430"
       transform="matrix(1.1476303,0,0,1.1476303,-29.364143,-157.0004)"
       width="100%"
       height="100%" />
    <use
       x="0"
       y="0"
       xlink:href="#path4226-1"
       id="use4432"
       transform="matrix(0.62661595,0,0,0.62661595,5.1128367,375.5853)"
       width="100%"
       height="100%" />
    <path
       sodipodi:type="star"
       style="display:inline;opacity:1;fill:url(#radialGradient4249);fill-opacity:1;stroke:none;stroke-width:1.5;stroke-linecap:round;stroke-miterlimit:4;stroke-dasharray:none;stroke-opacity:1"
       id="path4226-1-7"
       sodipodi:sides="8"
       sodipodi:cx="24.223391"
       sodipodi:cy="1011.9945"
       sodipodi:r1="7"
       sodipodi:r2="5.8099999"
       sodipodi:arg1="0"
       sodipodi:arg2="0.39269908"
       inkscape:flatsided="false"
       inkscape:rounded="0.37"
       inkscape:randomized="0"
       d="m 31.223391,1011.9945 c 0,1.0205 -1.241717,1.2805 -1.63226,2.2234 -0.390544,0.9429 0.303637,2.0047 -0.417993,2.7264 -0.72163,0.7216 -1.783502,0.027 -2.726357,0.4179 -0.942855,0.3906 -1.202852,1.6323 -2.22339,1.6323 -1.020539,0 -1.280536,-1.2417 -2.223391,-1.6323 -0.942855,-0.3905 -2.004727,0.3037 -2.726357,-0.4179 -0.72163,-0.7217 -0.02745,-1.7835 -0.417992,-2.7264 -0.390544,-0.9429 -1.63226,-1.2029 -1.63226,-2.2234 0,-1.0205 1.241716,-1.2805 1.63226,-2.2234 0.390543,-0.9428 -0.303638,-2.0047 0.417992,-2.7263 0.72163,-0.7217 1.783502,-0.028 2.726357,-0.418 0.942855,-0.3906 1.202852,-1.6323 2.223391,-1.6323 1.020538,0 1.280535,1.2417 2.22339,1.6323 0.942855,0.3905 2.004727,-0.3037 2.726357,0.418 0.72163,0.7216 0.02745,1.7835 0.417993,2.7263 0.390543,0.9429 1.63226,1.2029 1.63226,2.2234 z"
       transform="matrix(0.63250298,0,0,0.6263242,77.272332,353.16367)" />
    <use
       x="0"
       y="0"
       xlink:href="#path4226-1-7"
       id="use4473"
       transform="matrix(1.2810546,0,0,1.2810546,-36.816035,-288.34587)"
       width="100%"
       height="100%" />
    <use
       x="0"
       y="0"
       xlink:href="#path4226-1-7"
       id="use4475"
       transform="matrix(0.80055758,0,0,0.80055758,-3.6145111,201.69352)"
       width="100%"
       height="100%" />
    <use
       x="0"
       y="0"
       xlink:href="#path4226-1-7"
       id="use4477"
       transform="translate(-8.0990092,10.867416)"
       width="100%"
       height="100%" />
    <path
       sodipodi:type="star"
       style="display:inline;opacity:1;fill:url(#radialGradient4247);fill-opacity:1;stroke:none;stroke-width:1.5;stroke-linecap:round;stroke-miterlimit:4;stroke-dasharray:none;stroke-opacity:1"
       id="path4226-1-7-3"
       sodipodi:sides="8"
       sodipodi:cx="24.223391"
       sodipodi:cy="1011.9945"
       sodipodi:r1="7"
       sodipodi:r2="5.8099999"
       sodipodi:arg1="0"
       sodipodi:arg2="0.39269908"
       inkscape:flatsided="false"
       inkscape:rounded="0.37"
       inkscape:randomized="0"
       d="m 31.223391,1011.9945 c 0,1.0205 -1.241717,1.2805 -1.63226,2.2234 -0.390544,0.9429 0.303637,2.0047 -0.417993,2.7264 -0.72163,0.7216 -1.783502,0.027 -2.726357,0.4179 -0.942855,0.3906 -1.202852,1.6323 -2.22339,1.6323 -1.020539,0 -1.280536,-1.2417 -2.223391,-1.6323 -0.942855,-0.3905 -2.004727,0.3037 -2.726357,-0.4179 -0.72163,-0.7217 -0.02745,-1.7835 -0.417992,-2.7264 -0.390544,-0.9429 -1.63226,-1.2029 -1.63226,-2.2234 0,-1.0205 1.241716,-1.2805 1.63226,-2.2234 0.390543,-0.9428 -0.303638,-2.0047 0.417992,-2.7263 0.72163,-0.7217 1.783502,-0.028 2.726357,-0.418 0.942855,-0.3906 1.202852,-1.6323 2.223391,-1.6323 1.020538,0 1.280535,1.2417 2.22339,1.6323 0.942855,0.3905 2.004727,-0.3037 2.726357,0.418 0.72163,0.7216 0.02745,1.7835 0.417993,2.7263 0.390543,0.9429 1.63226,1.2029 1.63226,2.2234 z"
       transform="matrix(0.63250298,0,0,0.6263242,110.08494,346.88756)" />
    <use
       x="0"
       y="0"
       xlink:href="#path4226-1-7-3"
       id="use4518"
       transform="matrix(1.4287679,0,0,1.4287679,-70.170144,-424.48095)"
       width="100%"
       height="100%" />
    <use
       x="0"
       y="0"
       xlink:href="#path4226-1-7-3"
       id="use4520"
       transform="matrix(0.67103747,0,0,0.67103747,18.797489,337.33988)"
       width="100%"
       height="100%" />
    <use
       x="0"
       y="0"
       xlink:href="#path4226-1-7-3"
       id="use4522"
       transform="matrix(1.1687654,0,0,1.1687654,-24.734674,-149.1087)"
       width="100%"
       height="100%" />
    <path
       style="fill:url(#radialGradient4289);fill-opacity:1;fill-rule:evenodd;stroke:none;stroke-width:1px;stroke-linecap:butt;stroke-linejoin:miter;stroke-opacity:1;opacity:0.75"
       d="m 9,924.3622 c 3.737055,-3.68635 8.451523,-2.90461 11,-1 4.250206,0.54733 8.011031,1.79377 9,7 1.892785,1.48018 2.632831,3.34461 1,6 0.96603,4.29373 0.743607,7.70904 -1,10 -0.753975,1.41642 -1.311586,3.08697 -4,2 -2.538227,2.00305 -5.226487,2.05567 -8,1 -4.268646,1.18068 -5.128685,-0.89232 -7,-2 -6.2197239,-1.0506 -4.8438519,-5.01016 -6,-8 -3.19885147,-1.63698 -3.5095699,-4.0682 -2,-7 -0.810968,-4.88656 1.8884405,-5.04761 4,-6 0.5950684,-1.47653 1.58003,-2.17327 3,-2 z"
       id="path4270"
       inkscape:connector-curvature="0"
       sodipodi:nodetypes="cccccccccccc" />
    <path
       style="display:inline;opacity:0.75;fill:url(#radialGradient4289-6);fill-opacity:1;fill-rule:evenodd;stroke:none;stroke-width:1px;stroke-linecap:butt;stroke-linejoin:miter;stroke-opacity:1"
       d="m 37.471152,942.91749 c -3.68635,-3.73706 -2.90461,-8.45153 -1,-11 0.54733,-4.25021 1.79377,-8.01103 7,-9 1.48018,-1.89279 3.34461,-2.63283 6,-1 4.29373,-0.96603 7.70904,-0.74361 10,1 1.41642,0.75397 3.08697,1.31158 2,4 2.00305,2.53822 2.05567,5.22648 1,8 1.18068,4.26864 -0.89232,5.12868 -2,7 -1.0506,6.21972 -5.01016,4.84385 -8,6 -1.63698,3.19885 -4.0682,3.50957 -7,2 -4.88656,0.81097 -5.04761,-1.88844 -6,-4 -1.47653,-0.59507 -2.17327,-1.58003 -2,-3 z"
       id="path4270-2"
       inkscape:connector-curvature="0"
       sodipodi:nodetypes="cccccccccccc" />
    <path
       style="display:inline;opacity:0.75;fill:url(#radialGradient4289-7);fill-opacity:1;fill-rule:evenodd;stroke:none;stroke-width:1px;stroke-linecap:butt;stroke-linejoin:miter;stroke-opacity:1"
       d="m 89.02643,947.44637 c -3.73706,3.68635 -8.45153,2.90461 -11,1 -4.25021,-0.54733 -8.01103,-1.79377 -9,-7 -1.89279,-1.48018 -2.63283,-3.34461 -1,-6 -0.96603,-4.29373 -0.74361,-7.70904 1,-10 0.75397,-1.41642 1.31158,-3.08697 4,-2 2.53822,-2.00305 5.22648,-2.05567 8,-1 4.26864,-1.18068 5.12868,0.89232 7,2 6.21972,1.0506 4.84385,5.01016 6,8 3.19885,1.63698 3.50957,4.0682 2,7 0.81097,4.88656 -1.88844,5.04761 -4,6 -0.59507,1.47653 -1.58003,2.17327 -3,2 z"
       id="path4270-6"
       inkscape:connector-curvature="0"
       sodipodi:nodetypes="cccccccccccc" />
    <path
       style="display:inline;opacity:0.75;fill:url(#radialGradient4289-0);fill-opacity:1;fill-rule:evenodd;stroke:none;stroke-width:1px;stroke-linecap:butt;stroke-linejoin:miter;stroke-opacity:1"
       d="m 126.55528,928.89107 c 3.68634,3.73705 2.90461,8.45152 1,11 -0.54733,4.25021 -1.79377,8.01103 -7,9 -1.48018,1.89279 -3.34461,2.63283 -6,1 -4.29373,0.96603 -7.70904,0.74361 -10,-1 -1.41642,-0.75397 -3.08697,-1.31159 -2,-4 -2.00305,-2.53823 -2.05567,-5.22649 -1,-8 -1.18068,-4.26865 0.89232,-5.12869 2,-7 1.0506,-6.21972 5.01016,-4.84385 8,-6 1.63698,-3.19885 4.0682,-3.50957 7,-2 4.88656,-0.81097 5.04761,1.88844 6,4 1.47653,0.59507 2.17327,1.58003 2,3 z"
       id="path4270-1"
       inkscape:connector-curvature="0"
       sodipodi:nodetypes="cccccccccccc" />
  </g>
</svg>
