<?xml version="1.0" encoding="UTF-8" standalone="no"?>
<!-- Created with Inkscape (http://www.inkscape.org/) -->

<svg
   xmlns:dc="http://purl.org/dc/elements/1.1/"
   xmlns:cc="http://creativecommons.org/ns#"
   xmlns:rdf="http://www.w3.org/1999/02/22-rdf-syntax-ns#"
   xmlns:svg="http://www.w3.org/2000/svg"
   xmlns="http://www.w3.org/2000/svg"
   xmlns:xlink="http://www.w3.org/1999/xlink"
   xmlns:sodipodi="http://sodipodi.sourceforge.net/DTD/sodipodi-0.dtd"
   xmlns:inkscape="http://www.inkscape.org/namespaces/inkscape"
   width="210mm"
   height="297mm"
   viewBox="0 0 744.09448819 1052.3622047"
   id="svg2"
   version="1.1"
   inkscape:version="0.91 r13725"
   sodipodi:docname="Fire.svg">
  <defs
     id="defs4">
    <linearGradient
       inkscape:collect="always"
       id="linearGradient4141">
      <stop
         style="stop-color:#f4f1e0;stop-opacity:1"
         offset="0"
         id="stop4143" />
      <stop
         id="stop4153"
         offset="0.5"
         style="stop-color:#ffd894;stop-opacity:1" />
      <stop
         style="stop-color:#c04729;stop-opacity:1"
         offset="1"
         id="stop4145" />
    </linearGradient>
    <radialGradient
       inkscape:collect="always"
       xlink:href="#linearGradient4141"
       id="radialGradient4149"
       cx="5"
       cy="1044.5289"
       fx="5"
       fy="1044.5289"
       r="5"
       gradientTransform="matrix(1,0,0,1.1999921,0.90000004,-206.9642)"
       gradientUnits="userSpaceOnUse" />
    <filter
       inkscape:collect="always"
       style="color-interpolation-filters:sRGB"
       id="filter4527"
       x="-0.09"
       width="1.18"
       y="-0.045"
       height="1.09">
      <feGaussianBlur
         inkscape:collect="always"
         stdDeviation="0.375"
         id="feGaussianBlur4529" />
    </filter>
    <radialGradient
       inkscape:collect="always"
       xlink:href="#linearGradient4141"
       id="radialGradient4149-9"
       cx="5.9832592"
       cy="1045.2759"
       fx="5.9832592"
       fy="1045.2759"
       r="5"
       gradientTransform="matrix(1,0,0,1.1999921,0.90000004,-206.9642)"
       gradientUnits="userSpaceOnUse" />
    <filter
       inkscape:collect="always"
       style="color-interpolation-filters:sRGB"
       id="filter4527-7"
       x="-0.090000004"
       width="1.1799999"
       y="-0.045000002"
       height="1.09">
      <feGaussianBlur
         inkscape:collect="always"
         stdDeviation="0.375"
         id="feGaussianBlur4529-1" />
    </filter>
    <radialGradient
       inkscape:collect="always"
       xlink:href="#linearGradient4141"
       id="radialGradient4149-7"
       cx="4.999999"
       cy="1045.2759"
       fx="4.999999"
       fy="1045.2759"
       r="5"
       gradientTransform="matrix(1,0,0,1.1999921,0.90000004,-206.9642)"
       gradientUnits="userSpaceOnUse" />
    <filter
       inkscape:collect="always"
       style="color-interpolation-filters:sRGB"
       id="filter4527-1"
       x="-0.090000004"
       width="1.1799999"
       y="-0.045000002"
       height="1.09">
      <feGaussianBlur
         inkscape:collect="always"
         stdDeviation="0.375"
         id="feGaussianBlur4529-6" />
    </filter>
    <radialGradient
       inkscape:collect="always"
       xlink:href="#linearGradient4141"
       id="radialGradient4149-90"
       cx="4.0166135"
       cy="1045.2759"
       fx="4.0166135"
       fy="1045.2759"
       r="5"
       gradientTransform="matrix(1,0,0,1.1999921,0.90000004,-206.9642)"
       gradientUnits="userSpaceOnUse" />
    <filter
       inkscape:collect="always"
       style="color-interpolation-filters:sRGB"
       id="filter4527-6"
       x="-0.090000004"
       width="1.1799999"
       y="-0.045000002"
       height="1.09">
      <feGaussianBlur
         inkscape:collect="always"
         stdDeviation="0.375"
         id="feGaussianBlur4529-13" />
    </filter>
    <radialGradient
       inkscape:collect="always"
       xlink:href="#linearGradient4141"
       id="radialGradient4149-2"
       cx="4.016614"
       cy="1043.4883"
       fx="4.016614"
       fy="1043.4883"
       r="5"
       gradientTransform="matrix(1,3.1920227e-8,-4.3178155e-8,1.4010168,0.90004507,-416.58752)"
       gradientUnits="userSpaceOnUse" />
    <filter
       inkscape:collect="always"
       style="color-interpolation-filters:sRGB"
       id="filter4527-4"
       x="-0.090000004"
       width="1.1799999"
       y="-0.045000002"
       height="1.09">
      <feGaussianBlur
         inkscape:collect="always"
         stdDeviation="0.375"
         id="feGaussianBlur4529-18" />
    </filter>
    <filter
       inkscape:collect="always"
       style="color-interpolation-filters:sRGB"
       id="filter4876"
       x="-0.5148"
       width="2.0296"
       y="-0.5148"
       height="2.0296">
      <feGaussianBlur
         inkscape:collect="always"
         stdDeviation="0.429"
         id="feGaussianBlur4878" />
    </filter>
  </defs>
  <sodipodi:namedview
     id="base"
     pagecolor="#ffffff"
     bordercolor="#666666"
     borderopacity="1.0"
     inkscape:pageopacity="0.0"
     inkscape:pageshadow="2"
     inkscape:zoom="4"
     inkscape:cx="83.884625"
     inkscape:cy="31.879251"
     inkscape:document-units="px"
     inkscape:current-layer="layer1"
     showgrid="true"
     inkscape:object-paths="true"
     inkscape:snap-intersection-paths="true"
     inkscape:object-nodes="true"
     inkscape:snap-smooth-nodes="true"
     inkscape:window-width="1872"
     inkscape:window-height="1055"
     inkscape:window-x="48"
     inkscape:window-y="0"
     inkscape:window-maximized="1">
    <inkscape:grid
       type="xygrid"
       id="grid4136" />
  </sodipodi:namedview>
  <metadata
     id="metadata7">
    <rdf:RDF>
      <cc:Work
         rdf:about="">
        <dc:format>image/svg+xml</dc:format>
        <dc:type
           rdf:resource="http://purl.org/dc/dcmitype/StillImage" />
        <dc:title></dc:title>
      </cc:Work>
    </rdf:RDF>
  </metadata>
  <g
     inkscape:label="Camada 1"
     inkscape:groupmode="layer"
     id="layer1">
    <path
       style="opacity:0.75;fill:url(#radialGradient4149);fill-opacity:1;stroke:none;stroke-opacity:1;filter:url(#filter4527)"
       d="m 10.9,1044.9622 c 0,3.5 -2,6.5 -5,6.5 -3,0 -4.99999996,-3 -4.99999996,-6.5 0,-3.5 4.21756176,-10.7671 4.99999996,-13.5 1,3 5,9.9101 5,13.5 z"
       id="path4138"
       inkscape:connector-curvature="0"
       sodipodi:nodetypes="ssscs"
       transform="matrix(2.0339161,0,0,1.9985288,0,-1050.9542)" />
    <path
       style="opacity:0.75;fill:url(#radialGradient4149-9);fill-opacity:1;stroke:none;stroke-opacity:1;filter:url(#filter4527-7)"
       d="m 10.9,1044.9622 c -0.129895,3.4975 -2,6.5 -5,6.5 -3,0 -5.18218067,-3.0049 -4.99999996,-6.5 0.16319836,-3.1309 6.97613066,-8.0906 6.96658196,-12.6147 1.9077692,2.5381 3.169313,8.9556 3.033418,12.6147 z"
       id="path4138-3"
       inkscape:connector-curvature="0"
       sodipodi:nodetypes="ssscs"
       transform="matrix(2.0339161,0,0,1.9985288,25.999948,-1050.9542)" />
    <path
       style="opacity:0.75;fill:url(#radialGradient4149-7);fill-opacity:1;stroke:none;stroke-opacity:1;filter:url(#filter4527-1)"
       d="m 10.9,1044.9622 c 0,3.5 -2,6.5 -5,6.5 -3,0 -4.99999996,-3 -4.99999996,-6.5 0,-3.5 4.21756076,-6.8796 4.99999896,-9.6125 1,3 5.000001,6.0226 5.000001,9.6125 z"
       id="path4138-6"
       inkscape:connector-curvature="0"
       sodipodi:nodetypes="ssscs"
       transform="matrix(2.0338925,0,0,1.9985298,51.999908,-1050.9552)" />
    <path
       style="opacity:0.75;fill:url(#radialGradient4149-90);fill-opacity:1;stroke:none;stroke-opacity:1;filter:url(#filter4527-6)"
       d="m 10.9,1044.9622 c 0,3.5 -2,6.5 -5,6.5 -3,0 -4.99999996,-3 -4.99999996,-6.5 0,-3.5 1.06664546,-7.611 2.04996816,-10.6132 C 3.933291,1039.3527 10.9,1041.3723 10.9,1044.9622 Z"
       id="path4138-4"
       inkscape:connector-curvature="0"
       sodipodi:nodetypes="ssscs"
       transform="matrix(2.0339161,0,0,1.9985288,77.999843,-1050.9542)" />
    <path
       style="opacity:0.75;fill:url(#radialGradient4149-2);fill-opacity:1;stroke:none;stroke-opacity:1;filter:url(#filter4527-4)"
       d="m 10.9,1044.9622 c 0,3.5 -2,6.5 -5,6.5 -3,0 -4.99999996,-3 -4.99999996,-6.5 0,-3.5 1.06664546,-9.6125 2.04996816,-16.6176 C 3.933291,1035.3497 10.9,1041.3723 10.9,1044.9622 Z"
       id="path4138-9"
       inkscape:connector-curvature="0"
       sodipodi:nodetypes="ssscs"
       transform="matrix(2.0339161,0,0,1.9985288,103.99979,-1050.9542)" />
    <circle
       style="opacity:0.75;fill:#c04729;fill-opacity:1;stroke:none;stroke-opacity:1;filter:url(#filter4876)"
       id="path4678"
       cx="3"
       cy="1024.3622"
       r="1" />
    <circle
       r="1"
       cy="1015.3622"
       cx="5"
       id="circle4891"
       style="opacity:0.75;fill:#c04729;fill-opacity:1;stroke:none;stroke-opacity:1;filter:url(#filter4876)" />
    <circle
       style="opacity:0.75;fill:#c04729;fill-opacity:1;stroke:none;stroke-opacity:1;filter:url(#filter4876)"
       id="circle4893"
       cx="20"
       cy="1020.3622"
       r="1" />
    <circle
       r="1"
       cy="1019.3622"
       cx="33"
       id="circle4895"
       style="opacity:0.75;fill:#c04729;fill-opacity:1;stroke:none;stroke-opacity:1;filter:url(#filter4876)" />
    <circle
       style="opacity:0.75;fill:#c04729;fill-opacity:1;stroke:none;stroke-opacity:1;filter:url(#filter4876)"
       id="circle4897"
       cx="37"
       cy="1010.3622"
       r="1" />
    <circle
       r="1"
       cy="1014.3622"
       cx="49"
       id="circle4899"
       style="opacity:0.75;fill:#c04729;fill-opacity:1;stroke:none;stroke-opacity:1;filter:url(#filter4876)" />
    <circle
       style="opacity:0.75;fill:#c04729;fill-opacity:1;stroke:none;stroke-opacity:1;filter:url(#filter4876)"
       id="circle4901"
       cx="59"
       cy="1013.3622"
       r="1"
       transform="matrix(0.5,0,0,0.5,29,506.18109)" />
    <circle
       transform="matrix(0.5,0,0,0.5,41,503.68111)"
       r="1"
       cy="1013.3622"
       cx="59"
       id="circle4903"
       style="opacity:0.75;fill:#c04729;fill-opacity:1;stroke:none;stroke-opacity:1;filter:url(#filter4876)" />
    <circle
       style="opacity:0.75;fill:#c04729;fill-opacity:1;stroke:none;stroke-opacity:1;filter:url(#filter4876)"
       id="circle4905"
       cx="59"
       cy="1013.3622"
       r="1"
       transform="matrix(0.5,0,0,0.5,34,500.68111)" />
    <circle
       transform="matrix(0.5,0,0,0.5,51,518.68111)"
       r="1"
       cy="1013.3622"
       cx="59"
       id="circle4907"
       style="opacity:0.75;fill:#c04729;fill-opacity:1;stroke:none;stroke-opacity:1;filter:url(#filter4876)" />
    <circle
       style="opacity:0.75;fill:#c04729;fill-opacity:1;stroke:none;stroke-opacity:1;filter:url(#filter4876)"
       id="circle4909"
       cx="59"
       cy="1013.3622"
       r="1"
       transform="matrix(0.5,0,0,0.5,67,522.68111)" />
    <circle
       transform="matrix(0.5,0,0,0.5,57,512.68111)"
       r="1"
       cy="1013.3622"
       cx="59"
       id="circle4911"
       style="opacity:0.75;fill:#c04729;fill-opacity:1;stroke:none;stroke-opacity:1;filter:url(#filter4876)" />
    <circle
       style="opacity:0.75;fill:#c04729;fill-opacity:1;stroke:none;stroke-opacity:1;filter:url(#filter4876)"
       id="circle4913"
       cx="59"
       cy="1013.3622"
       r="1"
       transform="matrix(0.5,0,0,0.5,77,511.68111)" />
    <circle
       transform="matrix(0.5,0,0,0.5,85,504.68111)"
       r="1"
       cy="1013.3622"
       cx="59"
       id="circle4915"
       style="opacity:0.75;fill:#c04729;fill-opacity:1;stroke:none;stroke-opacity:1;filter:url(#filter4876)" />
    <circle
       style="opacity:0.75;fill:#c04729;fill-opacity:1;stroke:none;stroke-opacity:1;filter:url(#filter4876)"
       id="circle4917"
       cx="59"
       cy="1013.3622"
       r="1"
       transform="matrix(0.5,0,0,0.5,91.5,514.18111)" />
  </g>
</svg>
